<svg width="21" height="20" viewBox="0 0 21 20" fill="none" xmlns="http://www.w3.org/2000/svg">
<path fill-rule="evenodd" clip-rule="evenodd" d="M2.96322 4.32152C2.5 5.23064 2.5 6.42075 2.5 8.80098V11.201C2.5 13.5812 2.5 14.7713 2.96322 15.6804C3.37068 16.4801 4.02085 17.1303 4.82054 17.5378C5.72967 18.001 6.91978 18.001 9.3 18.001H11.7C14.0802 18.001 15.2703 18.001 16.1795 17.5378C16.9791 17.1303 17.6293 16.4801 18.0368 15.6804C18.5 14.7713 18.5 13.5812 18.5 11.201V8.80098C18.5 6.42075 18.5 5.23064 18.0368 4.32152C17.6293 3.52183 16.9791 2.87166 16.1795 2.4642C15.2703 2.00098 14.0802 2.00098 11.7 2.00098H9.3C6.91978 2.00098 5.72967 2.00098 4.82054 2.4642C4.02085 2.87166 3.37068 3.52183 2.96322 4.32152ZM4.49848 5.74902C4.49848 5.33481 4.83427 4.99902 5.24848 4.99902H9.2482C9.66241 4.99902 9.9982 5.33481 9.9982 5.74902C9.9982 6.16324 9.66241 6.49902 9.2482 6.49902L8.00171 6.49902V10.251C8.00171 10.6652 7.66593 11.001 7.25172 11.001C6.8375 11.001 6.50172 10.6652 6.50172 10.251L6.50171 6.49902H5.24848C4.83427 6.49902 4.49848 6.16324 4.49848 5.74902ZM12.2482 6.00098C11.834 6.00098 11.4982 6.33676 11.4982 6.75098C11.4982 7.16519 11.834 7.50098 12.2482 7.50098H14.7445C15.1587 7.50098 15.4945 7.16519 15.4945 6.75098C15.4945 6.33676 15.1587 6.00098 14.7445 6.00098H12.2482ZM10.0005 10.251C10.0008 9.83676 10.3368 9.50119 10.751 9.50146L14.7524 9.50403C15.1667 9.5043 15.5022 9.8403 15.502 10.2545C15.5017 10.6687 15.1657 11.0043 14.7515 11.004L10.75 11.0015C10.3358 11.0012 10.0002 10.6652 10.0005 10.251ZM7.25001 13.0029C6.83579 13.0029 6.50001 13.3387 6.50001 13.7529C6.50001 14.1671 6.83579 14.5029 7.25001 14.5029L14.75 14.5029C15.1642 14.5029 15.5 14.1671 15.5 13.7529C15.5 13.3387 15.1642 13.0029 14.75 13.0029L7.25001 13.0029Z" fill="#99A2AD"/>
</svg>
