<svg width="162" height="27" viewBox="0 0 162 27" fill="none" xmlns="http://www.w3.org/2000/svg">
<path d="M20.3489 11.8699C19.9699 12.2512 19.6797 12.7114 19.4989 13.2176C19.3181 13.7239 19.2512 14.2638 19.3029 14.7989L19.2849 14.7809C19.3381 15.4108 19.2531 16.0446 19.036 16.6383C18.8189 17.2319 18.4749 17.771 18.028 18.218C17.581 18.6649 17.0419 19.009 16.4482 19.226C15.8546 19.4431 15.2207 19.5281 14.5909 19.4749L14.6089 19.4929C13.8555 19.4228 13.0988 19.5867 12.4419 19.9624C11.7851 20.3381 11.2601 20.9072 10.9386 21.5922C10.6171 22.2772 10.5146 23.0446 10.6452 23.79C10.7759 24.5353 11.1332 25.2222 11.6685 25.757C12.2038 26.2918 12.891 26.6485 13.6364 26.7784C14.3819 26.9084 15.1492 26.8052 15.8339 26.4831C16.5186 26.1609 17.0872 25.6355 17.4623 24.9783C17.8374 24.3211 18.0007 23.5643 17.9299 22.8109L17.9489 22.8289C17.8957 22.1991 17.9806 21.5652 18.1977 20.9715C18.4148 20.3779 18.7589 19.8388 19.2058 19.3918C19.6528 18.9449 20.1919 18.6008 20.7855 18.3838C21.3792 18.1667 22.013 18.0817 22.6429 18.1349L22.6239 18.1169C23.2393 18.1722 23.8588 18.0713 24.4249 17.8235C24.9909 17.5757 25.4853 17.189 25.8621 16.6993C26.2389 16.2096 26.4861 15.6326 26.5805 15.022C26.675 14.4113 26.6138 13.7867 26.4026 13.2059C26.1914 12.6252 25.837 12.1072 25.3723 11.6999C24.9076 11.2926 24.3476 11.0092 23.7442 10.876C23.1408 10.7428 22.5135 10.764 21.9205 10.9377C21.3275 11.1115 20.788 11.4321 20.3519 11.8699H20.3489Z" fill="#292929"/>
<path d="M12.9718 17.1349L12.9528 17.1169C13.4881 17.1708 14.0287 17.1051 14.5356 16.9245C15.0424 16.7439 15.5028 16.453 15.8834 16.0727C16.2639 15.6924 16.5553 15.2322 16.7362 14.7255C16.9172 14.2188 16.9833 13.6783 16.9298 13.1429L16.9488 13.1609C16.8956 12.531 16.9806 11.8972 17.1976 11.3035C17.4147 10.7099 17.7588 10.1708 18.2057 9.7238C18.6527 9.2769 19.1918 8.9328 19.7854 8.7158C20.3791 8.49866 21.0129 8.41373 21.6428 8.4669L21.6238 8.4489C22.3773 8.5197 23.1342 8.35626 23.7914 7.981C24.4487 7.60574 24.9741 7.03687 25.2961 6.352C25.6181 5.66714 25.721 4.89961 25.5908 4.1541C25.4606 3.40859 25.1036 2.72141 24.5684 2.18627C24.0333 1.65114 23.3461 1.2941 22.6006 1.16388C21.8551 1.03365 21.0876 1.13656 20.4027 1.45858C19.7178 1.78059 19.149 2.30604 18.7737 2.96325C18.3984 3.62045 18.235 4.37742 18.3058 5.1309L18.2878 5.1119C18.3411 5.74179 18.2563 6.37573 18.0393 6.96945C17.8223 7.56317 17.4782 8.10236 17.0313 8.5494C16.5843 8.9963 16.0451 9.3404 15.4514 9.5574C14.8576 9.7744 14.2237 9.8592 13.5938 9.8059L13.6118 9.8249C13.0765 9.771 12.5358 9.8367 12.029 10.0173C11.5222 10.1978 11.0618 10.4888 10.6812 10.8691C10.3006 11.2494 10.0093 11.7096 9.82834 12.2163C9.64744 12.723 9.58134 13.2635 9.63484 13.7989L9.61684 13.7809C9.66984 14.4107 9.58474 15.0445 9.36764 15.6381C9.15044 16.2316 8.80644 16.7707 8.35954 17.2176C7.9126 17.6645 7.37356 18.0085 6.78 18.2257C6.18644 18.4428 5.55265 18.5279 4.92284 18.4749L4.94084 18.4929C4.18736 18.4221 3.43039 18.5855 2.77318 18.9608C2.11598 19.3361 1.59053 19.9049 1.26852 20.5898C0.946502 21.2747 0.843582 22.0422 0.973812 22.7877C1.10404 23.5332 1.46108 24.2204 1.99621 24.7555C2.53135 25.2907 3.21853 25.6477 3.96404 25.7779C4.70955 25.9081 5.47708 25.8052 6.16195 25.4832C6.84681 25.1612 7.41568 24.6358 7.79094 23.9786C8.16624 23.3213 8.32964 22.5644 8.25884 21.8109L8.27784 21.8289C8.22464 21.199 8.30964 20.5652 8.52674 19.9715C8.74374 19.3779 9.08784 18.8388 9.53474 18.3918C9.98174 17.9449 10.5208 17.6008 11.1144 17.3838C11.7081 17.1667 12.3419 17.0817 12.9718 17.1349Z" fill="#292929"/>
<path d="M6.2699 15.1279C6.64892 14.7467 6.9391 14.2865 7.11974 13.7802C7.30038 13.2739 7.36702 12.7339 7.3149 12.1989L7.33389 12.2169C7.28069 11.5869 7.36565 10.9528 7.58286 10.359C7.80007 9.7652 8.1443 9.226 8.5915 8.779C9.0387 8.33202 9.578 7.98803 10.1719 7.77108C10.7658 7.55412 11.3999 7.46942 12.0299 7.5229L12.0109 7.5049C12.7641 7.57547 13.5208 7.41198 14.1777 7.03674C14.8346 6.66151 15.3597 6.09278 15.6816 5.40813C16.0034 4.72347 16.1062 3.95622 15.976 3.21099C15.8458 2.46576 15.4888 1.77884 14.9539 1.2439C14.419 0.708962 13.732 0.352042 12.9868 0.221822C12.2416 0.0915916 11.4743 0.194412 10.7897 0.516232C10.105 0.838052 9.5363 1.36322 9.1611 2.02012C8.7858 2.67702 8.6223 3.43368 8.6929 4.1869L8.6749 4.1689C8.7281 4.79875 8.6431 5.43262 8.426 6.02626C8.2089 6.6199 7.86492 7.15901 7.41796 7.60597C6.97101 8.05293 6.43189 8.39696 5.83825 8.614C5.24461 8.8311 4.61075 8.9161 3.9809 8.8629L3.9989 8.8809C3.38347 8.8257 2.76406 8.9268 2.19808 9.1747C1.6321 9.4226 1.13785 9.8094 0.761139 10.2992C0.384429 10.7889 0.137449 11.3659 0.0430689 11.9765C-0.0513011 12.5872 0.0099889 13.2118 0.221259 13.7924C0.432529 14.3731 0.786959 14.891 1.25169 15.2982C1.71642 15.7055 2.27642 15.9888 2.8798 16.122C3.48317 16.2551 4.1104 16.2338 4.70337 16.0601C5.29633 15.8863 5.83583 15.5657 6.27189 15.1279H6.2699Z" fill="#292929"/>
<path d="M36.2837 9.2V12.04H40.8637V14.68H36.2837V17.76H41.4637V20.5H32.8637V6.46H41.4637V9.2H36.2837ZM50.284 20.5L48.144 17.4L46.344 20.5H42.644L46.324 14.8L42.544 9.34H46.384L48.524 12.42L50.324 9.34H54.024L50.284 14.96L54.124 20.5H50.284ZM54.7618 14.9C54.7618 13.7533 54.9751 12.7467 55.4018 11.88C55.8418 11.0133 56.4351 10.3467 57.1818 9.88C57.9284 9.41333 58.7618 9.18 59.6818 9.18C60.4684 9.18 61.1551 9.34 61.7418 9.66C62.3418 9.98 62.8018 10.4 63.1218 10.92V9.34H66.5418V20.5H63.1218V18.92C62.7884 19.44 62.3218 19.86 61.7218 20.18C61.1351 20.5 60.4484 20.66 59.6618 20.66C58.7551 20.66 57.9284 20.4267 57.1818 19.96C56.4351 19.48 55.8418 18.8067 55.4018 17.94C54.9751 17.06 54.7618 16.0467 54.7618 14.9ZM63.1218 14.92C63.1218 14.0667 62.8818 13.3933 62.4018 12.9C61.9351 12.4067 61.3618 12.16 60.6818 12.16C60.0018 12.16 59.4218 12.4067 58.9418 12.9C58.4751 13.38 58.2418 14.0467 58.2418 14.9C58.2418 15.7533 58.4751 16.4333 58.9418 16.94C59.4218 17.4333 60.0018 17.68 60.6818 17.68C61.3618 17.68 61.9351 17.4333 62.4018 16.94C62.8818 16.4467 63.1218 15.7733 63.1218 14.92ZM83.256 9.22C84.6427 9.22 85.7427 9.64 86.556 10.48C87.3827 11.32 87.796 12.4867 87.796 13.98V20.5H84.396V14.44C84.396 13.72 84.2027 13.1667 83.816 12.78C83.4427 12.38 82.9227 12.18 82.256 12.18C81.5893 12.18 81.0627 12.38 80.676 12.78C80.3027 13.1667 80.116 13.72 80.116 14.44V20.5H76.716V14.44C76.716 13.72 76.5227 13.1667 76.136 12.78C75.7627 12.38 75.2427 12.18 74.576 12.18C73.9093 12.18 73.3827 12.38 72.996 12.78C72.6227 13.1667 72.436 13.72 72.436 14.44V20.5H69.016V9.34H72.436V10.74C72.7827 10.2733 73.236 9.90667 73.796 9.64C74.356 9.36 74.9893 9.22 75.696 9.22C76.536 9.22 77.2827 9.4 77.936 9.76C78.6027 10.12 79.1227 10.6333 79.496 11.3C79.8827 10.6867 80.4093 10.1867 81.076 9.8C81.7427 9.41333 82.4693 9.22 83.256 9.22ZM91.9079 8.18C91.3079 8.18 90.8145 8.00667 90.4279 7.66C90.0545 7.3 89.8679 6.86 89.8679 6.34C89.8679 5.80667 90.0545 5.36667 90.4279 5.02C90.8145 4.66 91.3079 4.48 91.9079 4.48C92.4945 4.48 92.9745 4.66 93.3479 5.02C93.7345 5.36667 93.9279 5.80667 93.9279 6.34C93.9279 6.86 93.7345 7.3 93.3479 7.66C92.9745 8.00667 92.4945 8.18 91.9079 8.18ZM93.6079 9.34V20.5H90.1879V9.34H93.6079ZM102.886 9.22C104.193 9.22 105.233 9.64667 106.006 10.5C106.793 11.34 107.186 12.5 107.186 13.98V20.5H103.786V14.44C103.786 13.6933 103.593 13.1133 103.206 12.7C102.82 12.2867 102.3 12.08 101.646 12.08C100.993 12.08 100.473 12.2867 100.086 12.7C99.6996 13.1133 99.5063 13.6933 99.5063 14.44V20.5H96.0863V9.34H99.5063V10.82C99.853 10.3267 100.32 9.94 100.906 9.66C101.493 9.36667 102.153 9.22 102.886 9.22ZM108.883 14.9C108.883 13.7533 109.096 12.7467 109.523 11.88C109.963 11.0133 110.556 10.3467 111.303 9.88C112.05 9.41333 112.883 9.18 113.803 9.18C114.59 9.18 115.276 9.34 115.863 9.66C116.463 9.98 116.923 10.4 117.243 10.92V9.34H120.663V20.5H117.243V18.92C116.91 19.44 116.443 19.86 115.843 20.18C115.256 20.5 114.57 20.66 113.783 20.66C112.876 20.66 112.05 20.4267 111.303 19.96C110.556 19.48 109.963 18.8067 109.523 17.94C109.096 17.06 108.883 16.0467 108.883 14.9ZM117.243 14.92C117.243 14.0667 117.003 13.3933 116.523 12.9C116.056 12.4067 115.483 12.16 114.803 12.16C114.123 12.16 113.543 12.4067 113.063 12.9C112.596 13.38 112.363 14.0467 112.363 14.9C112.363 15.7533 112.596 16.4333 113.063 16.94C113.543 17.4333 114.123 17.68 114.803 17.68C115.483 17.68 116.056 17.4333 116.523 16.94C117.003 16.4467 117.243 15.7733 117.243 14.92ZM129.357 17.6V20.5H127.617C126.377 20.5 125.41 20.2 124.717 19.6C124.024 18.9867 123.677 17.9933 123.677 16.62V12.18H122.317V9.34H123.677V6.62H127.097V9.34H129.337V12.18H127.097V16.66C127.097 16.9933 127.177 17.2333 127.337 17.38C127.497 17.5267 127.764 17.6 128.137 17.6H129.357ZM142.282 9.34V20.5H138.862V18.98C138.515 19.4733 138.042 19.8733 137.442 20.18C136.855 20.4733 136.202 20.62 135.482 20.62C134.629 20.62 133.875 20.4333 133.222 20.06C132.569 19.6733 132.062 19.12 131.702 18.4C131.342 17.68 131.162 16.8333 131.162 15.86V9.34H134.562V15.4C134.562 16.1467 134.755 16.7267 135.142 17.14C135.529 17.5533 136.049 17.76 136.702 17.76C137.369 17.76 137.895 17.5533 138.282 17.14C138.669 16.7267 138.862 16.1467 138.862 15.4V9.34H142.282ZM149.279 20.66C148.305 20.66 147.439 20.4933 146.679 20.16C145.919 19.8267 145.319 19.3733 144.879 18.8C144.439 18.2133 144.192 17.56 144.139 16.84H147.519C147.559 17.2267 147.739 17.54 148.059 17.78C148.379 18.02 148.772 18.14 149.239 18.14C149.665 18.14 149.992 18.06 150.219 17.9C150.459 17.7267 150.579 17.5067 150.579 17.24C150.579 16.92 150.412 16.6867 150.079 16.54C149.745 16.38 149.205 16.2067 148.459 16.02C147.659 15.8333 146.992 15.64 146.459 15.44C145.925 15.2267 145.465 14.9 145.079 14.46C144.692 14.0067 144.499 13.4 144.499 12.64C144.499 12 144.672 11.42 145.019 10.9C145.379 10.3667 145.899 9.94667 146.579 9.64C147.272 9.33333 148.092 9.18 149.039 9.18C150.439 9.18 151.539 9.52667 152.339 10.22C153.152 10.9133 153.619 11.8333 153.739 12.98H150.579C150.525 12.5933 150.352 12.2867 150.059 12.06C149.779 11.8333 149.405 11.72 148.939 11.72C148.539 11.72 148.232 11.8 148.019 11.96C147.805 12.1067 147.699 12.3133 147.699 12.58C147.699 12.9 147.865 13.14 148.199 13.3C148.545 13.46 149.079 13.62 149.799 13.78C150.625 13.9933 151.299 14.2067 151.819 14.42C152.339 14.62 152.792 14.9533 153.179 15.42C153.579 15.8733 153.785 16.4867 153.799 17.26C153.799 17.9133 153.612 18.5 153.239 19.02C152.879 19.5267 152.352 19.9267 151.659 20.22C150.979 20.5133 150.185 20.66 149.279 20.66Z" fill="#292929"/>
</svg>
