<svg width="21" height="20" viewBox="0 0 21 20" fill="none" xmlns="http://www.w3.org/2000/svg">
<g clip-path="url(#clip0_65_289)">
<path fill-rule="evenodd" clip-rule="evenodd" d="M8.83317 15.001V17.501C8.83317 17.9612 9.20627 18.3343 9.6665 18.3343H11.3332C11.7934 18.3343 12.1665 17.9612 12.1665 17.501V15.001H13.8332V17.501C13.8332 18.8817 12.7139 20.001 11.3332 20.001H9.6665C8.28579 20.001 7.1665 18.8817 7.1665 17.501V15.001H8.83317Z" fill="#777E91"/>
<path fill-rule="evenodd" clip-rule="evenodd" d="M13.0002 11.0721L13.6244 10.5717C14.7709 9.65265 15.5002 8.24588 15.5002 6.66764C15.5002 3.90622 13.2616 1.66764 10.5002 1.66764C7.73874 1.66764 5.50016 3.90622 5.50016 6.66764C5.50016 8.24588 6.22947 9.65265 7.37595 10.5717L8.00016 11.0721V13.3343C8.00016 13.7945 8.37326 14.1676 8.8335 14.1676H12.1668C12.6271 14.1676 13.0002 13.7945 13.0002 13.3343V11.0721ZM14.6668 11.8721V13.3343C14.6668 14.715 13.5475 15.8343 12.1668 15.8343H8.8335C7.45278 15.8343 6.3335 14.715 6.3335 13.3343V11.8721C4.80939 10.6504 3.8335 8.77296 3.8335 6.66764C3.8335 2.98574 6.81826 0.000976562 10.5002 0.000976562C14.1821 0.000976562 17.1668 2.98574 17.1668 6.66764C17.1668 8.77296 16.1909 10.6504 14.6668 11.8721Z" fill="#777E91"/>
<path d="M9.42259 6.91174C9.09715 6.5863 8.56951 6.5863 8.24408 6.91174C7.91864 7.23718 7.91864 7.76482 8.24408 8.09025L9.66667 9.51284V14.1677H11.3333V9.51284L12.7559 8.09025C13.0814 7.76482 13.0814 7.23718 12.7559 6.91174C12.4305 6.5863 11.9028 6.5863 11.5774 6.91174L10.5 7.98915L9.42259 6.91174Z" fill="#777E91"/>
</g>
<defs>
<clipPath id="clip0_65_289">
<rect width="20" height="20" fill="white" transform="translate(0.5 0.000976562)"/>
</clipPath>
</defs>
</svg>
