<svg width="28" height="28" viewBox="0 0 28 28" fill="none" xmlns="http://www.w3.org/2000/svg">
<path fill-rule="evenodd" clip-rule="evenodd" d="M14 0C17.713 0 21.274 1.475 23.8995 4.1005C26.525 6.72601 28 10.287 28 14C28 21.732 21.732 28 14 28C6.258 28 0 21.7 0 14C0 6.26801 6.26801 0 14 0ZM14.0008 25.2C20.1864 25.2 25.2008 20.1856 25.2008 14C25.2008 7.81441 20.1864 2.8 14.0008 2.8C7.81519 2.8 2.80078 7.81441 2.80078 14C2.80078 20.1856 7.81519 25.2 14.0008 25.2ZM14.6996 14.35V7H12.5996V15.4L19.9496 19.81L20.9996 18.088L14.6996 14.35Z" fill="#A3A3A4"/>
</svg>
