 <svg width="28" height="28" viewBox="0 0 28 28" fill="none" xmlns="http://www.w3.org/2000/svg">
<path fill-rule="evenodd" clip-rule="evenodd" d="M10.4241 2.2809C12.0134 -0.7603 15.9866 -0.760299 17.576 2.2809L27.4406 21.1573C29.0299 24.1985 27.0433 28 23.8647 28H4.13531C0.95669 28 -1.02995 24.1985 0.559362 21.1573L10.4241 2.2809ZM15.3564 3.69663C14.7536 2.54307 13.2464 2.54307 12.6436 3.69663L2.77892 22.573C2.17607 23.7266 2.92963 25.1685 4.13531 25.1685H23.8647C25.0704 25.1685 25.8239 23.7266 25.2211 22.573L15.3564 3.69663Z" fill="#D3BF3D"/>
<path fill-rule="evenodd" clip-rule="evenodd" d="M14 7.70791C14.7077 7.70791 15.2815 8.29648 15.2815 9.02252L15.2814 16.618C15.2814 17.3441 14.7077 17.9326 13.9999 17.9326C13.2922 17.9326 12.7185 17.3441 12.7185 16.618L12.7186 9.02252C12.7186 8.29648 13.2923 7.70791 14 7.70791Z" fill="#D3BF3D"/>
<path d="M15.4239 21.0787C15.4239 21.9475 14.7864 22.6517 14 22.6517C13.2136 22.6517 12.5762 21.9475 12.5762 21.0787C12.5762 20.2099 13.2136 19.5057 14 19.5057C14.7864 19.5057 15.4239 20.2099 15.4239 21.0787Z" fill="#D3BF3D"/>
</svg>
