<svg xmlns="http://www.w3.org/2000/svg" width="35" height="35" viewBox="0 0 35 35" fill="none">
  <g clip-path="url(#clip0_70_3969)">
    <g filter="url(#filter0_d_70_3969)">
      <path fill-rule="evenodd" clip-rule="evenodd" d="M24.3035 6.20409C23.348 6.12602 22.1243 6.125 20.3875 6.125H18.8125C18.0876 6.125 17.5 5.53737 17.5 4.8125C17.5 4.08763 18.0876 3.5 18.8125 3.5H20.4446C22.1113 3.49999 23.4423 3.49998 24.5173 3.58781C25.6198 3.67789 26.5681 3.86686 27.439 4.31064C28.8385 5.0237 29.9763 6.16149 30.6893 7.56095C31.1331 8.43192 31.3221 9.38021 31.4122 10.4827C31.5 11.5577 31.5 12.8886 31.5 14.5554V20.4446C31.5 22.1114 31.5 23.4423 31.4122 24.5173C31.3221 25.6198 31.1331 26.5681 30.6893 27.4391C29.9763 28.8385 28.8385 29.9763 27.439 30.6894C26.5681 31.1331 25.6198 31.3221 24.5173 31.4122C23.4423 31.5 22.1114 31.5 20.4446 31.5H18.8206C18.0957 31.5 17.5081 30.9124 17.5081 30.1875C17.5081 29.4626 18.0957 28.875 18.8206 28.875H20.3875C22.1243 28.875 23.348 28.874 24.3035 28.7959C25.2437 28.7191 25.8081 28.5743 26.2473 28.3505C27.1528 27.8891 27.8891 27.1529 28.3505 26.2473C28.5743 25.8081 28.7191 25.2437 28.7959 24.3035C28.874 23.348 28.875 22.1243 28.875 20.3875V14.6125C28.875 12.8757 28.874 11.652 28.7959 10.6965C28.7191 9.7563 28.5743 9.19191 28.3505 8.75267C27.8891 7.84714 27.1528 7.11092 26.2473 6.64953C25.8081 6.42573 25.2437 6.28091 24.3035 6.20409ZM14.3844 12.1969C14.897 11.6844 15.728 11.6844 16.2406 12.1969L20.6156 16.5719C20.8617 16.818 21 17.1519 21 17.5C21 17.8481 20.8617 18.1819 20.6156 18.428L16.2406 22.8031C15.728 23.3156 14.897 23.3156 14.3844 22.8031C13.8719 22.2905 13.8719 21.4595 14.3844 20.9469L16.5189 18.8125L4.8125 18.8125C4.08763 18.8125 3.5 18.2249 3.5 17.5C3.5 16.7751 4.08762 16.1875 4.8125 16.1875L16.5188 16.1875L14.3844 14.0531C13.8719 13.5405 13.8719 12.7095 14.3844 12.1969Z" fill="#9F9F9F"/>
    </g>
  </g>
  <defs>
    <filter id="filter0_d_70_3969" x="-0.5" y="3.5" width="36" height="36" filterUnits="userSpaceOnUse" color-interpolation-filters="sRGB">
      <feFlood flood-opacity="0" result="BackgroundImageFix"/>
      <feColorMatrix in="SourceAlpha" type="matrix" values="0 0 0 0 0 0 0 0 0 0 0 0 0 0 0 0 0 0 127 0" result="hardAlpha"/>
      <feOffset dy="4"/>
      <feGaussianBlur stdDeviation="2"/>
      <feComposite in2="hardAlpha" operator="out"/>
      <feColorMatrix type="matrix" values="0 0 0 0 0 0 0 0 0 0 0 0 0 0 0 0 0 0 0.25 0"/>
      <feBlend mode="normal" in2="BackgroundImageFix" result="effect1_dropShadow_70_3969"/>
      <feBlend mode="normal" in="SourceGraphic" in2="effect1_dropShadow_70_3969" result="shape"/>
    </filter>
    <clipPath id="clip0_70_3969">
      <rect width="35" height="35" fill="white" transform="matrix(-1 0 0 1 35 0)"/>
    </clipPath>
  </defs>
</svg>