<svg xmlns="http://www.w3.org/2000/svg" width="204" height="167" viewBox="0 0 204 167" fill="none">
  <path d="M155.269 73.7434C152.378 76.1184 150.164 78.9849 148.784 82.1379C147.405 85.2915 146.894 88.6544 147.289 91.9874L147.151 91.8753C147.557 95.7987 146.909 99.7465 145.252 103.445C143.596 107.142 140.972 110.5 137.562 113.284C134.152 116.068 130.038 118.211 125.509 119.563C120.98 120.915 116.144 121.444 111.339 121.113L111.476 121.225C105.728 120.788 99.9547 121.809 94.9428 124.149C89.9318 126.49 85.9263 130.034 83.4734 134.301C81.0206 138.568 80.2385 143.348 81.2349 147.991C82.2321 152.633 84.9581 156.911 89.0422 160.243C93.1263 163.574 98.3692 165.795 104.056 166.605C109.744 167.414 115.598 166.772 120.822 164.765C126.046 162.758 130.384 159.486 133.246 155.392C136.108 151.299 137.354 146.585 136.813 141.892L136.958 142.004C136.553 138.081 137.2 134.133 138.857 130.435C140.513 126.738 143.138 123.38 146.548 120.595C149.958 117.812 154.071 115.668 158.6 114.317C163.13 112.965 167.965 112.435 172.771 112.766L172.626 112.654C177.322 112.999 182.048 112.37 186.367 110.827C190.685 109.283 194.457 106.875 197.332 103.824C200.207 100.774 202.093 97.1803 202.813 93.377C203.534 89.5731 203.067 85.6827 201.456 82.065C199.845 78.448 197.141 75.2215 193.595 72.6845C190.05 70.1476 185.777 68.3823 181.174 67.5527C176.57 66.723 171.784 66.855 167.26 67.937C162.735 69.0195 158.619 71.0165 155.292 73.7434H155.269Z" fill="#925FF0"/>
  <path d="M98.9864 106.538L98.8414 106.426C102.925 106.761 107.05 106.352 110.917 105.227C114.784 104.102 118.297 102.29 121.2 99.9215C124.103 97.5527 126.327 94.6862 127.707 91.5301C129.088 88.374 129.592 85.0074 129.184 81.6725L129.329 81.7846C128.923 77.8612 129.571 73.9134 131.227 70.2154C132.883 66.518 135.509 63.1601 138.918 60.3758C142.329 57.5922 146.442 55.4489 150.971 54.0973C155.5 52.7448 160.336 52.2158 165.142 52.5469L164.997 52.4348C170.746 52.8758 176.52 51.8578 181.534 49.5204C186.549 47.183 190.558 43.6396 193.015 39.3738C195.471 35.108 196.256 30.3272 195.263 25.6836C194.27 21.04 191.546 16.7598 187.463 13.4265C183.38 10.0933 178.137 7.86942 172.449 7.05831C166.761 6.24715 160.906 6.88815 155.68 8.89393C150.455 10.8996 146.115 14.1725 143.252 18.2661C140.389 22.3597 139.142 27.0746 139.682 31.7679L139.545 31.6495C139.951 35.5729 139.304 39.5216 137.649 43.2197C135.993 46.9178 133.368 50.2763 129.958 53.0608C126.548 55.8444 122.434 57.9877 117.904 59.3394C113.374 60.691 108.538 61.2192 103.732 60.8872L103.869 61.0056C99.7852 60.6698 95.6599 61.0791 91.7933 62.204C87.9267 63.3283 84.4141 65.1408 81.5103 67.5096C78.6065 69.8784 76.384 72.7449 75.0031 75.901C73.6229 79.0571 73.1186 82.4237 73.5268 85.7586L73.3895 85.6465C73.7938 89.5693 73.1445 93.5171 71.4882 97.2145C69.8311 100.911 67.2065 104.269 63.7969 107.053C60.387 109.836 56.2744 111.979 51.7458 113.332C47.2172 114.684 42.3817 115.214 37.5766 114.884L37.714 114.996C31.9653 114.555 26.19 115.573 21.1758 117.911C16.1617 120.248 12.1528 123.791 9.69602 128.057C7.23917 132.323 6.45395 137.104 7.44754 141.747C8.44112 146.391 11.1652 150.671 15.2479 154.004C19.3308 157.338 24.5736 159.562 30.2615 160.373C35.9493 161.184 41.8052 160.543 47.0304 158.537C52.2555 156.531 56.5957 153.259 59.4588 149.165C62.3221 145.071 63.5688 140.357 63.0286 135.663L63.1736 135.775C62.7677 131.852 63.4162 127.904 65.0725 124.206C66.7281 120.509 69.3534 117.151 72.7631 114.367C76.1734 111.583 80.2865 109.44 84.8154 108.088C89.345 106.736 94.1806 106.206 98.9864 106.538Z" fill="#925FF0"/>
  <path d="M47.854 94.0363C50.7457 91.6619 52.9596 88.7954 54.3378 85.6418C55.716 82.4882 56.2244 79.1247 55.8268 75.7923L55.9717 75.9044C55.5658 71.9803 56.214 68.0307 57.8712 64.332C59.5284 60.6334 62.1547 57.2749 65.5666 54.4906C68.9785 51.7065 73.0931 49.5639 77.6242 48.2125C82.1554 46.8612 86.9932 46.3336 91.7998 46.6667L91.6549 46.5546C97.4014 46.9941 103.175 45.9758 108.186 43.6385C113.198 41.3013 117.204 37.7589 119.66 33.4943C122.116 29.2298 122.9 24.4508 121.907 19.8089C120.913 15.1671 118.189 10.8884 114.108 7.55644C110.027 4.22443 104.786 2.00127 99.1005 1.19017C93.415 0.378996 87.5609 1.01944 82.3377 3.02397C77.1138 5.0285 72.7749 8.29965 69.9123 12.3913C67.049 16.483 65.8016 21.196 66.3402 25.8876L66.2029 25.7755C66.6088 29.6987 65.9603 33.6469 64.3039 37.3445C62.6475 41.0421 60.0231 44.4001 56.6131 47.1841C53.2031 49.9681 49.0899 52.111 44.5607 53.4629C40.0315 54.8151 35.1955 55.3446 30.3901 55.0132L30.5274 55.1253C25.832 54.7815 21.1062 55.4112 16.788 56.9553C12.4699 58.4994 8.69903 60.9087 5.82492 63.9595C2.95082 67.0098 1.06649 70.6038 0.346416 74.407C-0.373579 78.2109 0.0940325 82.1014 1.70591 85.7178C3.3178 89.3348 6.02192 92.5607 9.56757 95.097C13.1132 97.634 17.3857 99.3986 21.9892 100.228C26.5926 101.057 31.3781 100.925 35.9021 99.8427C40.4261 98.7601 44.5422 96.7632 47.8691 94.0363H47.854Z" fill="#925FF0"/>
</svg>