<svg width="17" height="16" viewBox="0 0 17 16" fill="none" xmlns="http://www.w3.org/2000/svg">
<g clip-path="url(#clip0_70_4699)">
<path fill-rule="evenodd" clip-rule="evenodd" d="M8.5 7.33431C7.31828 7.33431 6.26562 7.37735 5.40558 7.43202C4.58981 7.48387 3.96253 8.10629 3.90398 8.9163C3.86233 9.49253 3.83333 10.0997 3.83333 10.6676C3.83333 11.2356 3.86233 11.8428 3.90398 12.419C3.96253 13.229 4.58981 13.8514 5.40559 13.9033C6.26562 13.9579 7.31828 14.001 8.5 14.001C9.68172 14.001 10.7344 13.9579 11.5944 13.9033C12.4102 13.8514 13.0375 13.229 13.096 12.419C13.1377 11.8428 13.1667 11.2356 13.1667 10.6676C13.1667 10.0997 13.1377 9.49253 13.096 8.9163C13.0375 8.10629 12.4102 7.48387 11.5944 7.43202C10.7344 7.37735 9.68172 7.33431 8.5 7.33431ZM5.321 6.10137C3.84251 6.19535 2.68092 7.34256 2.57412 8.82019C2.53101 9.41657 2.5 10.0576 2.5 10.6676C2.5 11.2777 2.53101 11.9187 2.57412 12.5151C2.68092 13.9927 3.84251 15.1399 5.321 15.2339C6.20519 15.2901 7.28631 15.3343 8.5 15.3343C9.7137 15.3343 10.7948 15.2901 11.679 15.2339C13.1575 15.1399 14.3191 13.9927 14.4259 12.5151C14.469 11.9187 14.5 11.2777 14.5 10.6676C14.5 10.0576 14.469 9.41657 14.4259 8.82018C14.3191 7.34256 13.1575 6.19535 11.679 6.10137C10.7948 6.04517 9.71369 6.00098 8.5 6.00098C7.28631 6.00098 6.20519 6.04517 5.321 6.10137Z" fill="#777E91"/>
<path fill-rule="evenodd" clip-rule="evenodd" d="M9.1665 11.156C9.56504 10.9254 9.83317 10.4945 9.83317 10.001C9.83317 9.26462 9.23622 8.66766 8.49984 8.66766C7.76346 8.66766 7.1665 9.26462 7.1665 10.001C7.1665 10.4945 7.43464 10.9254 7.83317 11.156V12.001C7.83317 12.3692 8.13165 12.6677 8.49984 12.6677C8.86803 12.6677 9.1665 12.3692 9.1665 12.001V11.156Z" fill="#777E91"/>
<path fill-rule="evenodd" clip-rule="evenodd" d="M5.1665 4.001C5.1665 2.16005 6.65889 0.667664 8.49984 0.667664C10.3408 0.667664 11.8332 2.16005 11.8332 4.001V6.66766C11.8332 7.03585 11.5347 7.33433 11.1665 7.33433C10.7983 7.33433 10.4998 7.03585 10.4998 6.66766V4.001C10.4998 2.89643 9.60441 2.001 8.49984 2.001C7.39527 2.001 6.49984 2.89643 6.49984 4.001V6.66766C6.49984 7.03585 6.20136 7.33433 5.83317 7.33433C5.46498 7.33433 5.1665 7.03585 5.1665 6.66766V4.001Z" fill="#777E91"/>
</g>
<defs>
<clipPath id="clip0_70_4699">
<rect width="16" height="16" fill="white" transform="translate(0.5 0.000976562)"/>
</clipPath>
</defs>
</svg>
