<svg width="73" height="28" viewBox="0 0 73 28" fill="none" xmlns="http://www.w3.org/2000/svg">
    <path d="M20.3489 12.3699C19.9699 12.7512 19.6797 13.2114 19.4989 13.7176C19.3181 14.2239 19.2512 14.7638 19.3029 15.2989L19.2849 15.2809C19.3381 15.9108 19.2531 16.5446 19.036 17.1383C18.8189 17.7319 18.4749 18.271 18.028 18.718C17.581 19.1649 17.0419 19.509 16.4482 19.726C15.8546 19.9431 15.2207 20.0281 14.5909 19.9749L14.6089 19.9929C13.8555 19.9228 13.0988 20.0867 12.4419 20.4624C11.7851 20.8381 11.2601 21.4072 10.9386 22.0922C10.6171 22.7772 10.5146 23.5446 10.6452 24.29C10.7759 25.0353 11.1332 25.7222 11.6685 26.257C12.2038 26.7918 12.891 27.1485 13.6364 27.2784C14.3819 27.4084 15.1492 27.3052 15.8339 26.9831C16.5186 26.6609 17.0872 26.1355 17.4623 25.4783C17.8374 24.8211 18.0007 24.0643 17.9299 23.3109L17.9489 23.3289C17.8957 22.6991 17.9806 22.0652 18.1977 21.4715C18.4148 20.8779 18.7589 20.3388 19.2058 19.8918C19.6528 19.4449 20.1919 19.1008 20.7855 18.8838C21.3792 18.6667 22.013 18.5817 22.6429 18.6349L22.6239 18.6169C23.2393 18.6722 23.8588 18.5713 24.4249 18.3235C24.9909 18.0757 25.4853 17.689 25.8621 17.1993C26.2389 16.7096 26.4861 16.1326 26.5805 15.522C26.675 14.9113 26.6138 14.2867 26.4026 13.7059C26.1914 13.1252 25.837 12.6072 25.3723 12.1999C24.9076 11.7926 24.3476 11.5092 23.7442 11.376C23.1408 11.2428 22.5135 11.264 21.9205 11.4377C21.3275 11.6115 20.788 11.9321 20.3519 12.3699H20.3489Z" fill="#292929"/>
    <path d="M12.9719 17.6349L12.9529 17.6169C13.4882 17.6708 14.0288 17.6051 14.5357 17.4245C15.0425 17.2439 15.5029 16.953 15.8835 16.5727C16.264 16.1924 16.5554 15.7322 16.7363 15.2255C16.9173 14.7188 16.9834 14.1783 16.9299 13.6429L16.9489 13.6609C16.8957 13.031 16.9807 12.3972 17.1977 11.8035C17.4148 11.2099 17.7589 10.6708 18.2058 10.2238C18.6528 9.7769 19.1919 9.4328 19.7855 9.2158C20.3792 8.99866 21.013 8.91373 21.6429 8.9669L21.6239 8.9489C22.3774 9.0197 23.1343 8.85626 23.7915 8.481C24.4488 8.10574 24.9742 7.53687 25.2962 6.852C25.6182 6.16714 25.7211 5.39961 25.5909 4.6541C25.4607 3.90859 25.1037 3.22141 24.5685 2.68627C24.0334 2.15114 23.3462 1.7941 22.6007 1.66388C21.8552 1.53365 21.0877 1.63656 20.4028 1.95858C19.7179 2.28059 19.1491 2.80604 18.7738 3.46325C18.3985 4.12045 18.2351 4.87742 18.3059 5.6309L18.2879 5.6119C18.3412 6.24179 18.2564 6.87573 18.0394 7.46945C17.8224 8.06317 17.4783 8.60236 17.0314 9.0494C16.5844 9.4963 16.0452 9.8404 15.4515 10.0574C14.8577 10.2744 14.2238 10.3592 13.5939 10.3059L13.6119 10.3249C13.0766 10.271 12.5359 10.3367 12.0291 10.5173C11.5223 10.6978 11.0619 10.9888 10.6813 11.3691C10.3007 11.7494 10.0094 12.2096 9.8284 12.7163C9.6475 13.223 9.5814 13.7635 9.6349 14.2989L9.6169 14.2809C9.6699 14.9107 9.5848 15.5445 9.3677 16.1381C9.1505 16.7316 8.8065 17.2707 8.3596 17.7176C7.91266 18.1645 7.37362 18.5085 6.78006 18.7257C6.1865 18.9428 5.55271 19.0279 4.9229 18.9749L4.9409 18.9929C4.18742 18.9221 3.43045 19.0855 2.77324 19.4608C2.11604 19.8361 1.59059 20.4049 1.26858 21.0898C0.946563 21.7747 0.843643 22.5422 0.973873 23.2877C1.1041 24.0332 1.46114 24.7204 1.99627 25.2555C2.53141 25.7907 3.21859 26.1477 3.9641 26.2779C4.70961 26.4081 5.47714 26.3052 6.16201 25.9832C6.84687 25.6612 7.41574 25.1358 7.791 24.4786C8.1663 23.8213 8.3297 23.0644 8.2589 22.3109L8.2779 22.3289C8.2247 21.699 8.3097 21.0652 8.5268 20.4715C8.7438 19.8779 9.0879 19.3388 9.5348 18.8918C9.9818 18.4449 10.5209 18.1008 11.1145 17.8838C11.7082 17.6667 12.342 17.5817 12.9719 17.6349Z" fill="#292929"/>
    <path d="M6.2699 15.6279C6.64892 15.2467 6.9391 14.7865 7.11974 14.2802C7.30038 13.7739 7.36702 13.2339 7.3149 12.6989L7.33389 12.7169C7.28069 12.0869 7.36565 11.4528 7.58286 10.859C7.80007 10.2652 8.1443 9.726 8.5915 9.279C9.0387 8.83202 9.578 8.48803 10.1719 8.27108C10.7658 8.05412 11.3999 7.96942 12.0299 8.0229L12.0109 8.0049C12.7641 8.07547 13.5208 7.91198 14.1777 7.53674C14.8346 7.16151 15.3597 6.59278 15.6816 5.90813C16.0034 5.22347 16.1062 4.45622 15.976 3.71099C15.8458 2.96576 15.4888 2.27884 14.9539 1.7439C14.419 1.20896 13.732 0.852042 12.9868 0.721822C12.2416 0.591592 11.4743 0.694412 10.7897 1.01623C10.105 1.33805 9.5363 1.86322 9.1611 2.52012C8.7858 3.17702 8.6223 3.93368 8.6929 4.6869L8.6749 4.6689C8.7281 5.29875 8.6431 5.93262 8.426 6.52626C8.2089 7.1199 7.86492 7.65901 7.41796 8.10597C6.97101 8.55293 6.43189 8.89696 5.83825 9.114C5.24461 9.3311 4.61075 9.4161 3.9809 9.3629L3.9989 9.3809C3.38347 9.3257 2.76406 9.4268 2.19808 9.6747C1.6321 9.9226 1.13785 10.3094 0.761139 10.7992C0.384429 11.2889 0.137449 11.8659 0.0430689 12.4765C-0.0513011 13.0872 0.0099889 13.7118 0.221259 14.2924C0.432529 14.8731 0.786959 15.391 1.25169 15.7982C1.71642 16.2055 2.27642 16.4888 2.8798 16.622C3.48317 16.7551 4.1104 16.7338 4.70337 16.5601C5.29633 16.3863 5.83583 16.0657 6.27189 15.6279H6.2699Z" fill="#292929"/>
    <path d="M39.0837 18.1V21H37.3437C36.1037 21 35.137 20.7 34.4437 20.1C33.7503 19.4867 33.4037 18.4933 33.4037 17.12V12.68H32.0437V9.84H33.4037V7.12H36.8237V9.84H39.0637V12.68H36.8237V17.16C36.8237 17.4933 36.9037 17.7333 37.0637 17.88C37.2237 18.0267 37.4903 18.1 37.8637 18.1H39.0837ZM42.7087 8.68C42.1087 8.68 41.6153 8.50667 41.2287 8.16C40.8553 7.8 40.6687 7.36 40.6687 6.84C40.6687 6.30667 40.8553 5.86667 41.2287 5.52C41.6153 5.16 42.1087 4.98 42.7087 4.98C43.2953 4.98 43.7753 5.16 44.1487 5.52C44.5353 5.86667 44.7287 6.30667 44.7287 6.84C44.7287 7.36 44.5353 7.8 44.1487 8.16C43.7753 8.50667 43.2953 8.68 42.7087 8.68ZM44.4087 9.84V21H40.9887V9.84H44.4087ZM46.2071 15.4C46.2071 14.2533 46.4204 13.2467 46.8471 12.38C47.2871 11.5133 47.8804 10.8467 48.6271 10.38C49.3738 9.91333 50.2071 9.68 51.1271 9.68C51.9138 9.68 52.6004 9.84 53.1871 10.16C53.7871 10.48 54.2471 10.9 54.5671 11.42V9.84H57.9871V21H54.5671V19.42C54.2338 19.94 53.7671 20.36 53.1671 20.68C52.5804 21 51.8938 21.16 51.1071 21.16C50.2004 21.16 49.3738 20.9267 48.6271 20.46C47.8804 19.98 47.2871 19.3067 46.8471 18.44C46.4204 17.56 46.2071 16.5467 46.2071 15.4ZM54.5671 15.42C54.5671 14.5667 54.3271 13.8933 53.8471 13.4C53.3804 12.9067 52.8071 12.66 52.1271 12.66C51.4471 12.66 50.8671 12.9067 50.3871 13.4C49.9204 13.88 49.6871 14.5467 49.6871 15.4C49.6871 16.2533 49.9204 16.9333 50.3871 17.44C50.8671 17.9333 51.4471 18.18 52.1271 18.18C52.8071 18.18 53.3804 17.9333 53.8471 17.44C54.3271 16.9467 54.5671 16.2733 54.5671 15.42ZM67.2613 9.72C68.568 9.72 69.608 10.1467 70.3813 11C71.168 11.84 71.5613 13 71.5613 14.48V21H68.1613V14.94C68.1613 14.1933 67.968 13.6133 67.5813 13.2C67.1947 12.7867 66.6747 12.58 66.0213 12.58C65.368 12.58 64.848 12.7867 64.4613 13.2C64.0747 13.6133 63.8813 14.1933 63.8813 14.94V21H60.4613V9.84H63.8813V11.32C64.228 10.8267 64.6947 10.44 65.2813 10.16C65.868 9.86667 66.528 9.72 67.2613 9.72Z" fill="#292929"/>
</svg>