<svg width="154" height="28" viewBox="0 0 154 28" fill="none" xmlns="http://www.w3.org/2000/svg">
<path d="M20.3489 12.3699C19.9699 12.7512 19.6797 13.2114 19.4989 13.7176C19.3181 14.2239 19.2512 14.7638 19.3029 15.2989L19.2849 15.2809C19.3381 15.9108 19.2531 16.5446 19.036 17.1383C18.8189 17.7319 18.4749 18.271 18.028 18.718C17.581 19.1649 17.0419 19.509 16.4482 19.726C15.8546 19.9431 15.2207 20.0281 14.5909 19.9749L14.6089 19.9929C13.8555 19.9228 13.0988 20.0867 12.4419 20.4624C11.7851 20.8381 11.2601 21.4072 10.9386 22.0922C10.6171 22.7772 10.5146 23.5446 10.6452 24.29C10.7759 25.0353 11.1332 25.7222 11.6685 26.257C12.2038 26.7918 12.891 27.1485 13.6364 27.2784C14.3819 27.4084 15.1492 27.3052 15.8339 26.9831C16.5186 26.6609 17.0872 26.1355 17.4623 25.4783C17.8374 24.8211 18.0007 24.0643 17.9299 23.3109L17.9489 23.3289C17.8957 22.6991 17.9806 22.0652 18.1977 21.4715C18.4148 20.8779 18.7589 20.3388 19.2058 19.8918C19.6528 19.4449 20.1919 19.1008 20.7855 18.8838C21.3792 18.6667 22.013 18.5817 22.6429 18.6349L22.6239 18.6169C23.2393 18.6722 23.8588 18.5713 24.4249 18.3235C24.9909 18.0757 25.4853 17.689 25.8621 17.1993C26.2389 16.7096 26.4861 16.1326 26.5805 15.522C26.675 14.9113 26.6138 14.2867 26.4026 13.7059C26.1914 13.1252 25.837 12.6072 25.3723 12.1999C24.9076 11.7926 24.3476 11.5092 23.7442 11.376C23.1408 11.2428 22.5135 11.264 21.9205 11.4377C21.3275 11.6115 20.788 11.9321 20.3519 12.3699H20.3489Z" fill="#292929"/>
<path d="M12.9719 17.6349L12.9529 17.6169C13.4882 17.6708 14.0288 17.6051 14.5357 17.4245C15.0425 17.2439 15.5029 16.953 15.8835 16.5727C16.264 16.1924 16.5554 15.7322 16.7363 15.2255C16.9173 14.7188 16.9834 14.1783 16.9299 13.6429L16.9489 13.6609C16.8957 13.031 16.9807 12.3972 17.1977 11.8035C17.4148 11.2099 17.7589 10.6708 18.2058 10.2238C18.6528 9.7769 19.1919 9.4328 19.7855 9.2158C20.3792 8.99866 21.013 8.91373 21.6429 8.9669L21.6239 8.9489C22.3774 9.0197 23.1343 8.85626 23.7915 8.481C24.4488 8.10574 24.9742 7.53687 25.2962 6.852C25.6182 6.16714 25.7211 5.39961 25.5909 4.6541C25.4607 3.90859 25.1037 3.22141 24.5685 2.68627C24.0334 2.15114 23.3462 1.7941 22.6007 1.66388C21.8552 1.53365 21.0877 1.63656 20.4028 1.95858C19.7179 2.28059 19.1491 2.80604 18.7738 3.46325C18.3985 4.12045 18.2351 4.87742 18.3059 5.6309L18.2879 5.6119C18.3412 6.24179 18.2564 6.87573 18.0394 7.46945C17.8224 8.06317 17.4783 8.60236 17.0314 9.0494C16.5844 9.4963 16.0452 9.8404 15.4515 10.0574C14.8577 10.2744 14.2238 10.3592 13.5939 10.3059L13.6119 10.3249C13.0766 10.271 12.5359 10.3367 12.0291 10.5173C11.5223 10.6978 11.0619 10.9888 10.6813 11.3691C10.3007 11.7494 10.0094 12.2096 9.8284 12.7163C9.6475 13.223 9.5814 13.7635 9.6349 14.2989L9.6169 14.2809C9.6699 14.9107 9.5848 15.5445 9.3677 16.1381C9.1505 16.7316 8.8065 17.2707 8.3596 17.7176C7.91266 18.1645 7.37362 18.5085 6.78006 18.7257C6.1865 18.9428 5.55271 19.0279 4.9229 18.9749L4.9409 18.9929C4.18742 18.9221 3.43045 19.0855 2.77324 19.4608C2.11604 19.8361 1.59059 20.4049 1.26858 21.0898C0.946563 21.7747 0.843643 22.5422 0.973873 23.2877C1.1041 24.0332 1.46114 24.7204 1.99627 25.2555C2.53141 25.7907 3.21859 26.1477 3.9641 26.2779C4.70961 26.4081 5.47714 26.3052 6.16201 25.9832C6.84687 25.6612 7.41574 25.1358 7.791 24.4786C8.1663 23.8213 8.3297 23.0644 8.2589 22.3109L8.2779 22.3289C8.2247 21.699 8.3097 21.0652 8.5268 20.4715C8.7438 19.8779 9.0879 19.3388 9.5348 18.8918C9.9818 18.4449 10.5209 18.1008 11.1145 17.8838C11.7082 17.6667 12.342 17.5817 12.9719 17.6349Z" fill="#292929"/>
<path d="M6.2699 15.6279C6.64892 15.2467 6.9391 14.7865 7.11974 14.2802C7.30038 13.7739 7.36702 13.2339 7.3149 12.6989L7.33389 12.7169C7.28069 12.0869 7.36565 11.4528 7.58286 10.859C7.80007 10.2652 8.1443 9.726 8.5915 9.279C9.0387 8.83202 9.578 8.48803 10.1719 8.27108C10.7658 8.05412 11.3999 7.96942 12.0299 8.0229L12.0109 8.0049C12.7641 8.07547 13.5208 7.91198 14.1777 7.53674C14.8346 7.16151 15.3597 6.59278 15.6816 5.90813C16.0034 5.22347 16.1062 4.45622 15.976 3.71099C15.8458 2.96576 15.4888 2.27884 14.9539 1.7439C14.419 1.20896 13.732 0.852042 12.9868 0.721822C12.2416 0.591592 11.4743 0.694412 10.7897 1.01623C10.105 1.33805 9.5363 1.86322 9.1611 2.52012C8.7858 3.17702 8.6223 3.93368 8.6929 4.6869L8.6749 4.6689C8.7281 5.29875 8.6431 5.93262 8.426 6.52626C8.2089 7.1199 7.86492 7.65901 7.41796 8.10597C6.97101 8.55293 6.43189 8.89696 5.83825 9.114C5.24461 9.3311 4.61075 9.4161 3.9809 9.3629L3.9989 9.3809C3.38347 9.3257 2.76406 9.4268 2.19808 9.6747C1.6321 9.9226 1.13785 10.3094 0.761139 10.7992C0.384429 11.2889 0.137449 11.8659 0.0430689 12.4765C-0.0513011 13.0872 0.0099889 13.7118 0.221259 14.2924C0.432529 14.8731 0.786959 15.391 1.25169 15.7982C1.71642 16.2055 2.27642 16.4888 2.8798 16.622C3.48317 16.7551 4.1104 16.7338 4.70337 16.5601C5.29633 16.3863 5.83583 16.0657 6.27189 15.6279H6.2699Z" fill="#292929"/>
<path d="M36.2837 9.7V12.54H40.8637V15.18H36.2837V18.26H41.4637V21H32.8637V6.96H41.4637V9.7H36.2837ZM50.284 21L48.144 17.9L46.344 21H42.644L46.324 15.3L42.544 9.84H46.384L48.524 12.92L50.324 9.84H54.024L50.284 15.46L54.124 21H50.284ZM54.7618 15.4C54.7618 14.2533 54.9751 13.2467 55.4018 12.38C55.8418 11.5133 56.4351 10.8467 57.1818 10.38C57.9285 9.91333 58.7618 9.68 59.6818 9.68C60.4685 9.68 61.1551 9.84 61.7418 10.16C62.3418 10.48 62.8018 10.9 63.1218 11.42V9.84H66.5418V21H63.1218V19.42C62.7885 19.94 62.3218 20.36 61.7218 20.68C61.1351 21 60.4485 21.16 59.6618 21.16C58.7551 21.16 57.9285 20.9267 57.1818 20.46C56.4351 19.98 55.8418 19.3067 55.4018 18.44C54.9751 17.56 54.7618 16.5467 54.7618 15.4ZM63.1218 15.42C63.1218 14.5667 62.8818 13.8933 62.4018 13.4C61.9351 12.9067 61.3618 12.66 60.6818 12.66C60.0018 12.66 59.4218 12.9067 58.9418 13.4C58.4751 13.88 58.2418 14.5467 58.2418 15.4C58.2418 16.2533 58.4751 16.9333 58.9418 17.44C59.4218 17.9333 60.0018 18.18 60.6818 18.18C61.3618 18.18 61.9351 17.9333 62.4018 17.44C62.8818 16.9467 63.1218 16.2733 63.1218 15.42ZM83.256 9.72C84.6427 9.72 85.7427 10.14 86.556 10.98C87.3827 11.82 87.796 12.9867 87.796 14.48V21H84.396V14.94C84.396 14.22 84.2027 13.6667 83.816 13.28C83.4427 12.88 82.9227 12.68 82.256 12.68C81.5893 12.68 81.0627 12.88 80.676 13.28C80.3027 13.6667 80.116 14.22 80.116 14.94V21H76.716V14.94C76.716 14.22 76.5227 13.6667 76.136 13.28C75.7627 12.88 75.2427 12.68 74.576 12.68C73.9093 12.68 73.3827 12.88 72.996 13.28C72.6227 13.6667 72.436 14.22 72.436 14.94V21H69.016V9.84H72.436V11.24C72.7827 10.7733 73.236 10.4067 73.796 10.14C74.356 9.86 74.9893 9.72 75.696 9.72C76.536 9.72 77.2827 9.9 77.936 10.26C78.6027 10.62 79.1227 11.1333 79.496 11.8C79.8827 11.1867 80.4093 10.6867 81.076 10.3C81.7427 9.91333 82.4693 9.72 83.256 9.72ZM91.9079 8.68C91.3079 8.68 90.8146 8.50667 90.4279 8.16C90.0546 7.8 89.8679 7.36 89.8679 6.84C89.8679 6.30667 90.0546 5.86667 90.4279 5.52C90.8146 5.16 91.3079 4.98 91.9079 4.98C92.4946 4.98 92.9746 5.16 93.3479 5.52C93.7346 5.86667 93.9279 6.30667 93.9279 6.84C93.9279 7.36 93.7346 7.8 93.3479 8.16C92.9746 8.50667 92.4946 8.68 91.9079 8.68ZM93.6079 9.84V21H90.1879V9.84H93.6079ZM102.886 9.72C104.193 9.72 105.233 10.1467 106.006 11C106.793 11.84 107.186 13 107.186 14.48V21H103.786V14.94C103.786 14.1933 103.593 13.6133 103.206 13.2C102.82 12.7867 102.3 12.58 101.646 12.58C100.993 12.58 100.473 12.7867 100.086 13.2C99.6997 13.6133 99.5063 14.1933 99.5063 14.94V21H96.0863V9.84H99.5063V11.32C99.853 10.8267 100.32 10.44 100.906 10.16C101.493 9.86667 102.153 9.72 102.886 9.72ZM108.883 15.4C108.883 14.2533 109.096 13.2467 109.523 12.38C109.963 11.5133 110.556 10.8467 111.303 10.38C112.05 9.91333 112.883 9.68 113.803 9.68C114.59 9.68 115.276 9.84 115.863 10.16C116.463 10.48 116.923 10.9 117.243 11.42V9.84H120.663V21H117.243V19.42C116.91 19.94 116.443 20.36 115.843 20.68C115.256 21 114.57 21.16 113.783 21.16C112.876 21.16 112.05 20.9267 111.303 20.46C110.556 19.98 109.963 19.3067 109.523 18.44C109.096 17.56 108.883 16.5467 108.883 15.4ZM117.243 15.42C117.243 14.5667 117.003 13.8933 116.523 13.4C116.056 12.9067 115.483 12.66 114.803 12.66C114.123 12.66 113.543 12.9067 113.063 13.4C112.596 13.88 112.363 14.5467 112.363 15.4C112.363 16.2533 112.596 16.9333 113.063 17.44C113.543 17.9333 114.123 18.18 114.803 18.18C115.483 18.18 116.056 17.9333 116.523 17.44C117.003 16.9467 117.243 16.2733 117.243 15.42ZM129.357 18.1V21H127.617C126.377 21 125.41 20.7 124.717 20.1C124.024 19.4867 123.677 18.4933 123.677 17.12V12.68H122.317V9.84H123.677V7.12H127.097V9.84H129.337V12.68H127.097V17.16C127.097 17.4933 127.177 17.7333 127.337 17.88C127.497 18.0267 127.764 18.1 128.137 18.1H129.357ZM142.282 9.84V21H138.862V19.48C138.515 19.9733 138.042 20.3733 137.442 20.68C136.855 20.9733 136.202 21.12 135.482 21.12C134.629 21.12 133.875 20.9333 133.222 20.56C132.569 20.1733 132.062 19.62 131.702 18.9C131.342 18.18 131.162 17.3333 131.162 16.36V9.84H134.562V15.9C134.562 16.6467 134.755 17.2267 135.142 17.64C135.529 18.0533 136.049 18.26 136.702 18.26C137.369 18.26 137.895 18.0533 138.282 17.64C138.669 17.2267 138.862 16.6467 138.862 15.9V9.84H142.282ZM149.279 21.16C148.305 21.16 147.439 20.9933 146.679 20.66C145.919 20.3267 145.319 19.8733 144.879 19.3C144.439 18.7133 144.192 18.06 144.139 17.34H147.519C147.559 17.7267 147.739 18.04 148.059 18.28C148.379 18.52 148.772 18.64 149.239 18.64C149.665 18.64 149.992 18.56 150.219 18.4C150.459 18.2267 150.579 18.0067 150.579 17.74C150.579 17.42 150.412 17.1867 150.079 17.04C149.745 16.88 149.205 16.7067 148.459 16.52C147.659 16.3333 146.992 16.14 146.459 15.94C145.925 15.7267 145.465 15.4 145.079 14.96C144.692 14.5067 144.499 13.9 144.499 13.14C144.499 12.5 144.672 11.92 145.019 11.4C145.379 10.8667 145.899 10.4467 146.579 10.14C147.272 9.83333 148.092 9.68 149.039 9.68C150.439 9.68 151.539 10.0267 152.339 10.72C153.152 11.4133 153.619 12.3333 153.739 13.48H150.579C150.525 13.0933 150.352 12.7867 150.059 12.56C149.779 12.3333 149.405 12.22 148.939 12.22C148.539 12.22 148.232 12.3 148.019 12.46C147.805 12.6067 147.699 12.8133 147.699 13.08C147.699 13.4 147.865 13.64 148.199 13.8C148.545 13.96 149.079 14.12 149.799 14.28C150.625 14.4933 151.299 14.7067 151.819 14.92C152.339 15.12 152.792 15.4533 153.179 15.92C153.579 16.3733 153.785 16.9867 153.799 17.76C153.799 18.4133 153.612 19 153.239 19.52C152.879 20.0267 152.352 20.4267 151.659 20.72C150.979 21.0133 150.185 21.16 149.279 21.16Z" fill="#292929"/>
</svg>
