<svg width="610" height="581" viewBox="0 0 610 581" fill="none" xmlns="http://www.w3.org/2000/svg">
<g clip-path="url(#clip0_64_180)">
<rect width="610" height="581" fill="#F6F7FA"/>
<path d="M-503.675 -197.031L-521.759 -186.426L-534.169 -205.222L-513.578 -218.273L-503.675 -197.031ZM-493.146 -174.441L-508.721 -166.686L-520.311 -184.238L-502.564 -194.647L-493.146 -174.441ZM-446.407 -210.917L-424.151 -168.676L-478.942 -150.319L-500.094 -195.7L-446.407 -210.917ZM-414.858 -115.07C-436.731 -119.75 -456.173 -123.916 -467.801 -126.42L-477.835 -147.946L-422.996 -166.318C-422.136 -160.84 -419.011 -140.97 -414.858 -115.07ZM-403.165 -43.358L-418.534 -41.1632L-423.783 -73.2589H-423.785L-430.292 -113.065C-425.058 -111.946 -419.592 -110.773 -413.975 -109.573C-410.732 -89.3916 -406.951 -66.1225 -403.165 -43.358ZM-400.774 -173.764L-393.637 -110.528C-395.997 -111.033 -398.349 -111.535 -400.686 -112.036C-405.909 -144.507 -409.719 -168.812 -409.826 -169.503C-409.887 -169.89 -409.992 -170.263 -410.122 -170.631L-400.774 -173.764ZM-365.266 -185.66L-342.017 -130.37L-345.901 -100.321C-360.055 -103.347 -375.565 -106.663 -390.851 -109.933L-398.151 -174.642L-365.266 -185.66ZM-339.094 -194.428L-294.31 -89.2971C-302.809 -91.1119 -321.213 -95.0441 -343.252 -99.7538L-339.292 -130.383C-339.265 -130.602 -339.294 -130.823 -339.379 -131.027L-362.711 -186.516L-339.094 -194.428ZM-342.887 -217.04L-315.982 -228.01L-306.331 -208.149L-335.006 -198.541L-342.887 -217.04ZM-281.963 -158.003L-312.925 -146.702L-333.984 -196.14L-305.183 -205.789L-281.963 -158.003ZM-260.984 -220.597L-250.463 -195.959L-290.33 -181.667C-290.375 -181.652 -290.404 -181.618 -290.446 -181.598L-302.619 -206.648L-260.984 -220.597ZM-281.481 -233.905L-251.106 -243.889L-244.965 -228.708L-274.418 -218.842L-281.481 -233.905ZM-223.841 -233.042L-213.625 -209.167L-247.93 -196.868L-258.429 -221.453L-223.841 -233.042ZM-198.251 -241.615L-177.391 -196.176L-201.394 -187.414L-221.283 -233.899L-198.251 -241.615ZM-154.487 -228.77L-142.926 -206.82L-172.272 -197.892L-180.76 -216.379L-154.487 -228.77ZM-118.455 -175.508L-153.824 -157.704L-171.178 -195.508L-141.525 -204.528L-118.455 -175.508ZM-113.314 -230.634L-86.5791 -198.599L-83.0938 -193.309L-116.05 -176.719L-139.25 -205.905L-113.314 -230.634ZM-64.5445 -165.152L-95.9568 -151.442L-114.401 -174.645L-81.6593 -191.129L-64.5445 -165.152ZM-42.51 -220.498L21.8902 -159.251L33.8299 -107.764L18.1898 -100.344L11.6586 -111.097C11.6563 -111.099 11.6563 -111.104 11.6563 -111.104C11.6541 -111.106 11.6519 -111.108 11.6496 -111.11L-5.92919 -140.047C-5.92919 -140.047 -5.92919 -140.047 -5.92919 -140.051C-5.93143 -140.051 -5.93142 -140.051 -5.93142 -140.051L-12.9064 -151.532C-12.9064 -151.532 -12.9064 -151.534 -12.9087 -151.536C-12.9087 -151.539 -12.9109 -151.539 -12.9109 -151.541L-21.2353 -165.24C-21.6073 -165.854 -22.4299 -166.063 -23.0709 -165.715L-51.5134 -150.211L-79.3844 -192.517L-42.51 -220.498ZM70.5451 -122.269C67.0935 -99.1868 62.1312 -66.6315 62.0572 -66.1397C62.0348 -65.9979 62.037 -65.8562 62.0639 -65.7145L66.7819 -41.3264L34.3969 -23.5744L24.219 -35.2573L13.6108 -51.3578L36.6337 -106.575C36.6472 -106.607 36.6427 -106.641 36.6539 -106.675C36.6875 -106.783 36.7122 -106.892 36.7167 -107.006C36.7189 -107.066 36.7122 -107.124 36.7077 -107.184C36.701 -107.236 36.7099 -107.285 36.6987 -107.335L33.6371 -120.536L70.5451 -122.269ZM76.3031 -142.953L105.981 -135.58L108.022 -124.174C108.099 -123.749 108.392 -123.388 108.805 -123.212L145.634 -107.519C131.326 -76.2011 120.339 -51.2332 119.144 -45.8965C119.023 -45.3553 118.873 -44.6981 118.702 -43.9765L80.1851 -48.3812C80.1559 -48.3834 80.1268 -48.3769 80.0955 -48.3769C80.0327 -48.3812 79.9699 -48.3769 79.9049 -48.3705C79.7951 -48.3598 79.6898 -48.3362 79.5844 -48.3018C79.5531 -48.2889 79.5194 -48.2932 79.4858 -48.2803C79.4679 -48.2739 79.4544 -48.2567 79.4365 -48.2481C79.4096 -48.2352 79.3804 -48.2331 79.3558 -48.218L69.2676 -42.6901L64.7647 -65.9765C65.5111 -70.8773 74.8216 -131.998 76.3031 -142.953ZM76.3031 -181.04C78.1948 -184.034 86.9607 -202.003 89.2648 -206.736C100.31 -202.211 112.041 -197.405 123.987 -192.513L106.261 -138.187L76.5317 -145.573C76.5452 -147.488 76.3905 -150.944 76.1955 -155.14C75.81 -163.524 75.0928 -179.129 76.3031 -181.04ZM175.278 -171.511C165.557 -150.733 155.552 -129.195 146.719 -109.89L110.564 -125.297L108.554 -136.536L126.487 -191.488C142.835 -184.794 159.501 -177.969 175.278 -171.511ZM180.245 -169.48C219.441 -153.433 252.091 -140.075 258.685 -137.375C249.827 -116.709 239.768 -92.9888 231.847 -73.6176L208.779 -83.4471L222.622 -109.865C222.958 -110.505 222.689 -111.282 222.021 -111.602C221.36 -111.924 220.542 -111.664 220.206 -111.026L206.307 -84.4994L151.654 -107.788C160.268 -126.607 170.175 -147.95 180.245 -169.48ZM202.107 -215.996L257.694 -193.494L249.083 -175.274H249.081L236.744 -149.172C222.398 -155.041 202.867 -163.035 181.35 -171.842C188.338 -186.776 195.383 -201.751 202.107 -215.996ZM215.313 -243.902L343.515 -202.507L356.62 -132.419L274.112 -166.381C278.911 -177.469 282.058 -184.678 282.192 -184.987C282.481 -185.645 282.158 -186.403 281.472 -186.68L203.221 -218.354C207.419 -227.245 211.478 -235.819 215.313 -243.902ZM510.644 -129.717L504.577 -120.027C504.559 -119.999 504.559 -119.965 504.541 -119.937C504.526 -119.909 504.496 -119.894 504.483 -119.864L495.686 -103.222L416.706 -133.25C416.047 -133.503 415.3 -133.222 414.989 -132.614L402.899 -108.836L362.447 -129.792C362.49 -130.065 362.501 -130.338 362.45 -130.61L349.45 -200.154L510.644 -129.717ZM515.053 -126.693C523.427 -118.487 533.739 -108.222 542.225 -99.5304L510.548 -119.492L515.053 -126.693ZM536.55 -161.022L651.996 -95.8452L634.859 -41.1589L551.582 -93.6331C540.667 -105.217 523.402 -122.222 516.492 -128.989L536.55 -161.022ZM564.439 -159.843L563.647 -151.736L546.521 -161.405L564.439 -159.843ZM489.957 -193.339L497.27 -217.253L569.517 -212.049L564.687 -162.423L541.073 -164.48L489.957 -193.339ZM570.416 -193.348L597.37 -190.623L596.539 -174.829C596.501 -174.114 597.075 -173.506 597.821 -173.47C597.843 -173.47 597.868 -173.47 597.888 -173.47C598.605 -173.47 599.202 -174.007 599.24 -174.698L600.062 -190.35L622.254 -188.106L619.741 -157.627L567.381 -162.189L570.416 -193.348ZM572.214 -211.854L623.87 -207.765L623.047 -197.763V-197.761C623.047 -197.759 623.047 -197.759 623.047 -197.757L622.464 -190.689L599.749 -192.985C599.52 -193.204 599.215 -193.354 598.868 -193.372C598.572 -193.395 598.307 -193.301 598.074 -193.155L570.665 -195.927L572.214 -211.854ZM574.814 -238.553C592.332 -235.546 609.855 -232.653 625.721 -230.231L624.085 -210.348L572.467 -214.433L574.814 -238.553ZM626.671 -208.843C626.671 -208.843 626.671 -208.843 626.671 -208.845L628.402 -229.825C642.484 -227.696 655.152 -225.966 665.18 -224.894L662.333 -196.254L625.851 -198.859L626.671 -208.843ZM668.513 -203.777L691.914 -202.709L690.904 -151.427L663.55 -153.809L668.513 -203.777ZM670.559 -224.361C673.224 -224.121 675.645 -223.938 677.774 -223.829C681.786 -223.62 686.992 -223.326 693.127 -222.963L692.018 -205.297L668.77 -206.356L670.559 -224.361ZM733.065 -145.152L730.945 -89.4324L692.493 -94.6253L693.553 -148.594L733.065 -145.152ZM694.64 -203.899L695.826 -222.802C718.001 -221.477 750.971 -219.355 784.352 -217.165L773.203 -144.256L693.604 -151.191L694.64 -203.899ZM789.762 -216.81C804.562 -215.837 819.323 -214.858 833.148 -213.939L821.708 -140.03L778.598 -143.786L789.762 -216.81ZM835.851 -213.759C865.113 -211.809 889.813 -210.142 901.107 -209.38C901.071 -184.311 900.847 -156.656 900.215 -133.187L866.781 -136.102C866.568 -136.269 866.315 -136.394 866.017 -136.411C865.741 -136.441 865.494 -136.357 865.27 -136.233L824.393 -139.796L835.851 -213.759ZM839.414 -236.768L901.094 -230.776C901.107 -225.583 901.114 -220.158 901.112 -214.573C889.705 -215.344 865.412 -216.982 836.646 -218.898L839.414 -236.768ZM920.456 38.2848L898.081 37.3227C899.8 21.1985 901.463 5.55764 903.01 -9.03739L920.456 38.2848ZM949.616 -18.8476L954.901 -0.636015L915.225 8.53851L905.103 -18.9185L949.616 -18.8476ZM984.435 -17.4022L998.771 41.6479L969.607 40.3959L952.445 -18.7681L984.435 -17.4022ZM1013.87 -16.1438C1013.88 -16.1373 1013.87 -16.1309 1013.87 -16.1244L1029.11 42.9515L1001.57 41.7703L987.241 -17.282L1013.87 -16.1438ZM1036.4 -15.1816L1054.01 44.021L1031.92 43.0739L1016.69 -16.0235L1036.4 -15.1816ZM1053.46 -14.4536L1072.29 44.807L1056.86 44.1456L1039.24 -15.0614L1053.46 -14.4536ZM1098.15 58.8823C1062.27 70.7521 1024.39 83.2489 985.729 95.9712L973.415 53.5219L1098.15 58.8823ZM1137.68 136.116L1124.73 146.931L1111.99 131.705L1088.68 75.7173C1098.4 72.5023 1107.25 69.5752 1115.08 66.9852C1120.75 84.7608 1134.36 126.057 1137.68 136.116ZM1105.4 163.088C1099.94 155.769 1096.41 150.552 1095.79 148.525C1092.66 138.339 1075.77 95.8681 1070.16 81.8336C1075.7 80.006 1081.03 78.245 1086.12 76.5634L1109.55 132.843C1109.6 132.963 1109.67 133.075 1109.75 133.174L1122.69 148.637L1105.4 163.088ZM1119.56 185.614L1107.88 194.649L1094.97 178.679L1106.56 168.991C1110.36 173.972 1114.77 179.601 1119.56 185.614ZM1130.15 198.766L1118.94 208.342L1109.54 196.698L1121.2 187.671C1124.08 191.266 1127.08 194.982 1130.15 198.766ZM1075.47 245.502L1065.17 231.012L1107.43 198.325L1116.92 210.068L1075.47 245.502ZM1096.31 277.692L1032.11 309.184L1017.61 290.236L1013.09 277.739L1074.79 249.092L1096.31 277.692ZM1111.6 298.01L1081.17 318.721L1064.79 296.056L1097.9 279.807L1111.6 298.01ZM1129.73 322.1C1120.13 328.989 1109.8 336.267 1099.19 343.636L1082.71 320.85L1113.18 300.113L1129.73 322.1ZM1119.13 375.768L1095.26 394.744L1075.52 366.183C1083.7 360.608 1091.94 354.951 1100.02 349.342L1119.13 375.768ZM1136.32 399.555L1112 418.967L1096.76 396.915L1120.67 377.905L1136.32 399.555ZM1125.83 448.365L1033.42 503.459L1026.99 486.861L1109.28 424.415L1125.83 448.365ZM1037.85 522.35C1037.89 522.459 1037.99 522.519 1038.06 522.609L1003.05 535.766L990.765 501.915L1024.2 488.912C1024.32 488.864 1024.43 488.802 1024.53 488.727L1024.76 488.551L1037.85 522.35ZM1096.53 503.425L1114.7 555.8L1021.35 586.161L1003.94 538.214L1096.53 503.425ZM1118.62 495.125L1139.34 547.79L1117.26 554.967L1099.05 502.478L1118.62 495.125ZM1092.48 624.74L1070.66 632.729L1053.1 581.303L1074.08 574.478L1092.48 624.74ZM1095.65 633.395L1073.64 641.434L1071.51 635.195L1093.38 627.184L1095.65 633.395ZM1106.63 664.986L1084.29 672.644L1074.48 643.901L1096.52 635.85L1106.63 664.986ZM1130.9 734.929L1108.85 744.557L1085.13 675.108L1107.49 667.445L1130.9 734.929ZM1078.76 754.238L1077.12 753.035C1076.78 752.786 1076.41 752.578 1076.03 752.395L1054.14 685.736L1082.59 675.982L1106.33 745.508L1078.76 754.238ZM1072.89 751.706L1056.76 752.004L1035.63 692.082L1051.59 686.608L1072.97 751.71C1072.95 751.712 1072.92 751.706 1072.89 751.706ZM1045.73 752.208L1026.11 695.347L1033.08 692.954L1053.92 752.058L1045.73 752.208ZM1033.18 752.442L1014.66 699.27L1023.56 696.219L1042.9 752.262L1033.18 752.442ZM983.196 753.368L982.207 738.895L1021 725.641L1030.35 752.494L983.196 753.368ZM980.309 711.048L1012.11 700.144L1020.14 723.184L982.024 736.207L980.309 711.048ZM978.128 679.085L1001.77 670.452L1011.26 697.687L980.123 708.361L978.128 679.085ZM977.483 669.633L1019.44 654.268L1021.61 660.433L977.942 676.381L977.483 669.633ZM975.602 642.074L1010.99 630.298L1018.57 651.811L977.299 666.928L975.602 642.074ZM973.226 607.28L999.82 598.632L1010.12 627.844L975.418 639.391L973.226 607.28ZM904.124 805.829C889.634 809.3 871.118 810.316 850.841 809.536C850.767 806.113 850.652 801.517 850.498 796.309L971.803 784.905L972.42 793.968C949.883 796.784 925.862 800.622 904.124 805.829ZM849.805 777.462L851.816 777.883C852.006 777.924 852.199 777.943 852.394 777.943C852.508 777.943 852.623 777.936 852.735 777.921L970.346 763.593L971.449 779.734L850.332 791.121C850.186 786.748 850.014 782.114 849.805 777.462ZM848.55 756.222L882.381 744.623L890.633 768.083L852.515 772.726L849.552 772.106C849.272 766.505 848.938 761.056 848.55 756.222ZM846.849 742.037C846.575 740.74 845.062 736.065 842.523 728.609L872.851 717.533L881.516 742.168L848.326 753.551C847.896 748.753 847.409 744.722 846.849 742.037ZM670.129 763.728C665.115 758.728 659.762 749.011 653.608 736.348L662.56 738.225C668.08 752.067 671.287 760.217 671.368 760.416C671.686 761.228 672.41 761.836 673.298 762.029L836.35 797.508C836.548 797.55 836.749 797.572 836.951 797.572C837.038 797.572 837.126 797.568 837.213 797.559L845.094 796.82C845.242 801.685 845.349 806.001 845.423 809.285C775.902 805.597 688.492 782.026 670.129 763.728ZM644.983 718.09C628.559 682.867 606.221 635.021 568.798 591.152C574.56 586.146 581.107 581.284 588.28 576.733C603.149 600.558 616.435 624.652 624.831 645.074C639.409 680.528 651.889 711.52 660.249 732.436L650.779 730.451C648.923 726.538 646.998 722.411 644.983 718.09ZM613.882 722.72L529.187 669.872L544.861 622.719C547.239 615.574 552.23 607.948 559.196 600.404C595.044 642.787 616.695 689.179 632.64 723.373C633.216 724.605 633.776 725.808 634.335 727.004L613.882 722.72ZM573.106 820.908L487.543 798.635L527.51 675.007L610.675 726.899L573.106 820.908ZM482.323 797.278L469.027 793.816L509.804 671.186L522.476 673.067L482.323 797.278ZM389.281 773.057L400.418 654.946L507.101 670.782L466.418 793.137L389.281 773.057ZM345.429 761.645L359.814 706.684L392.506 710.06L386.631 772.368L345.429 761.645ZM340.213 760.285L276.936 743.816L278.987 706.164L291.554 702.685C292.027 702.552 292.388 702.187 292.498 701.725L298.903 674.65L360.845 681.452L340.213 760.285ZM323.323 824.808L260.774 809.225L274.863 756.697L336.923 772.851L323.323 824.808ZM211.998 726.912L225.645 666.605L296.2 674.354L290.037 700.406L277.31 703.933C276.757 704.085 276.367 704.558 276.335 705.11L274.267 743.12L211.998 726.912ZM197.564 729.577L153.091 716.447L170.334 653.735L212.354 664.215L197.564 729.577ZM182.753 795.025L129.858 782.017L132.921 713.202L196.988 732.118L182.753 795.025ZM99.6757 700.675L113.184 639.479L167.716 653.08L150.505 715.682L99.6757 700.675ZM221.842 622.283L212.926 661.694L169.715 650.911C169.713 650.909 169.713 650.909 169.711 650.909H169.706L113.745 636.943L121.19 603.215L221.842 622.283ZM98.1852 521.995L241.382 535.935L222.987 617.222L121.215 597.938L98.1852 521.995ZM78.6049 457.417C78.2822 456.352 77.677 455.381 76.85 454.604L74.9449 452.813L76.8926 353.972C89.7444 357.601 101.637 366.16 114.188 375.257C126.652 384.292 139.542 393.632 154.772 399.168C160.916 401.399 166.916 403.225 172.718 404.994C196.232 412.15 216.543 418.331 240.31 447.942C244.782 453.509 250.827 458.021 258.142 461.865L252.279 487.776L141.409 472.259C141.057 472.21 140.692 472.296 140.403 472.506C140.114 472.714 139.923 473.024 139.876 473.365L132.883 522.766L97.3716 519.311L78.6049 457.417ZM10.5088 279.934L9.89911 256.884L76.3591 253.302L74.4361 278.806L10.5088 279.934ZM72.5646 303.611L11.1767 305.08L10.5783 282.52L74.2411 281.381L72.5646 303.611ZM71.7689 339.549C47.4168 335.333 -3.45475 332.399 -34.7976 330.907C-35.5215 325.551 -36.6668 317.076 -38.0789 306.669L9.82964 307.702H9.85877C9.86325 307.702 9.86997 307.7 9.87445 307.7C9.88117 307.7 9.88792 307.702 9.89241 307.702L72.4256 306.205L71.7689 339.549ZM69.6351 447.817L22.1077 403.107C21.4555 402.49 20.6777 402.012 19.826 401.692C19.3598 401.518 -3.70127 393.02 -39.278 383.916L-34.6944 343.891C-2.41925 345.444 49.8867 348.479 71.5089 352.668L69.6351 447.817ZM-44.5653 382.584C-75.9327 374.784 -116.055 366.834 -158.768 363.482L-185.872 308.804L-179.243 227.034C-130.697 275.875 -67.3798 339.693 -66.3712 340.711C-65.1564 341.935 -63.4888 342.656 -61.7271 342.719C-61.4246 342.732 -52.8761 343.047 -40.105 343.636L-44.5653 382.584ZM-193.177 176.802L-127.829 170.177C-127.708 170.211 -127.589 170.244 -127.459 170.244C-127.416 170.244 -127.369 170.241 -127.324 170.237C-127.129 170.22 -126.952 170.16 -126.793 170.072L-63.4351 163.65C-61.651 175.484 -58.8045 195.585 -55.5747 218.816L-181.621 205.863C-184.017 203.454 -186.352 201.107 -188.62 198.826C-189.701 193.517 -191.274 185.865 -193.177 176.802ZM-197.523 285.296L-226.091 227.666C-226.721 226.394 -227.765 225.357 -229.065 224.704C-323.873 177.204 -428.651 121.375 -436.016 111.576C-439.069 106.606 -446.636 80.5537 -454.48 52.9721C-431.514 48.3956 -408.753 44.0038 -388.496 40.34C-386.848 48.7908 -385.479 55.1606 -384.513 58.6031C-376.581 86.8268 -352.903 117.02 -328.213 130.393C-316.632 136.666 -296.496 144.928 -277.021 152.919C-260.211 159.817 -237.188 169.262 -233.879 172.232C-231.634 174.384 -214.398 191.676 -191.778 214.426L-197.523 285.296ZM-470.275 -2.16725L-447.465 -5.96848L-439.495 36.7621C-445.638 37.9626 -451.836 39.1868 -458.044 40.4259C-461.924 26.7501 -466.052 12.2323 -470.275 -2.16725ZM-478.635 -29.9571L-452.631 -33.6724L-447.938 -8.51767L-471.01 -4.67347C-473.534 -13.2359 -476.087 -21.7339 -478.635 -29.9571ZM-488.611 -60.5108L-458.622 -65.8004L-453.107 -36.2237L-479.418 -32.4655C-482.511 -42.368 -485.595 -51.8453 -488.611 -60.5108ZM-496.443 -81.3983L-479.944 -84.4414L-475.226 -65.504L-489.486 -62.9913C-491.859 -69.7133 -494.186 -75.9069 -496.443 -81.3983ZM-459.098 -68.3495L-472.564 -65.9743L-477.286 -84.9311L-462.693 -87.622L-459.098 -68.3495ZM-458.822 -81.6002L-460.274 -89.3809C-460.274 -89.383 -460.274 -89.3852 -460.274 -89.3873C-460.274 -89.3895 -460.277 -89.3916 -460.277 -89.3916L-466.124 -120.751C-457.755 -118.951 -446.266 -116.486 -433.13 -113.672L-428.725 -86.7437L-458.822 -81.6002ZM-456.439 -68.8177L-458.349 -79.0531L-428.306 -84.1837L-426.652 -74.0707L-456.439 -68.8177ZM-450.433 -36.606L-455.964 -66.2685L-426.233 -71.5108L-421.208 -40.7809L-450.433 -36.606ZM-416.781 -13.7127L-445.278 -8.96222L-449.955 -34.0547L-420.789 -38.221L-416.781 -13.7127ZM-409.47 31.0023C-418.35 32.6688 -427.526 34.4277 -436.846 36.2446L-444.802 -6.41303L-416.364 -11.1528L-409.47 31.0023ZM-390.903 27.5833C-396.065 28.5132 -401.381 29.4904 -406.814 30.5062L-418.117 -38.6033L-402.739 -40.8003C-398.528 -15.5274 -394.339 8.92076 -390.903 27.5833ZM-396.168 -84.0828C-397.423 -91.8077 -398.642 -99.3414 -399.801 -106.538C-390.726 -104.597 -381.469 -102.617 -372.374 -100.673L-370.177 -82.8393L-396.168 -84.0828ZM-369.545 -80.215L-360.226 -59.9997L-390.177 -47.6103C-392.057 -58.9409 -393.933 -70.3747 -395.742 -81.4692L-369.545 -80.215ZM-339.843 -68.4312L-345.381 -83.2925L-343.92 -94.5888C-325.167 -90.5793 -309.096 -87.1474 -299.539 -85.105L-339.843 -68.4312ZM-260.699 -12.3082L-283.742 -10.8177L-310.793 -77.6314L-295.05 -84.1451C-293.71 -83.8594 -292.614 -83.6254 -291.816 -83.4536C-288.776 -76.4374 -274.853 -44.3094 -260.699 -12.3082ZM-256.663 -105.935L-288.691 -89.8104L-311.903 -144.301L-280.82 -155.649L-256.663 -105.935ZM-240.686 -173.07L-279.43 -158.928L-289.312 -179.266L-249.437 -193.561L-240.686 -173.07ZM-238.16 -173.994L-246.906 -194.469L-212.598 -206.768L-203.922 -186.493L-238.16 -173.994ZM-194.844 -165.277L-228.532 -151.446L-237.136 -171.595L-202.895 -184.096L-194.844 -165.277ZM-176.578 -146.249L-182.504 -143.266L-200.369 -185.017L-195.143 -186.927L-176.578 -146.249ZM-174.179 -147.456L-192.614 -187.848L-176.304 -193.803L-158.62 -155.288L-174.179 -147.456ZM-147.46 -130.975L-163.607 -124.292L-173.099 -145.089L-157.537 -152.926L-147.46 -130.975ZM-147.931 -144.866L-152.739 -155.342L-116.806 -173.433L-107.343 -161.527L-147.931 -144.866ZM-142.478 -132.992L-146.842 -142.497L-105.655 -159.405L-98.4962 -150.4L-142.478 -132.992ZM-94.0943 -142.609L-138.699 -124.758L-141.391 -130.621L-97.0214 -148.182L-94.0943 -142.609ZM-86.6597 -134.167L-94.5605 -149.206L-63.0899 -162.942L-53.8937 -148.981L-86.6597 -134.167ZM-34.9186 -120.18L-71.0354 -104.433L-85.445 -131.856L-52.4413 -146.777L-34.9186 -120.18ZM-42.7341 -136.886L-50.0722 -148.021L-22.8983 -162.829L-15.9434 -151.38L-42.7341 -136.886ZM-35.2234 -125.484L-41.2907 -134.693L-14.583 -149.142L-8.95721 -139.882L-35.2234 -125.484ZM-27.7755 -114.179L-33.78 -123.294L-7.59897 -137.644L-1.43977 -127.509L-27.7755 -114.179ZM-16.311 -96.7772L-26.3276 -111.982L-0.0792975 -125.267L8.64622 -110.906L-16.311 -96.7772ZM-9.88512 -87.025L-14.8676 -94.5845L10.0067 -108.666L15.7625 -99.1932L-9.88512 -87.025ZM10.7755 -93.9359L32.8145 -104.393L21.182 -76.4954L10.7755 -93.9359ZM-8.43498 -84.8237L8.34813 -92.7848L19.9022 -73.4243L11.8289 -54.0616L-8.43498 -84.8237ZM6.12248 -31.5914L-6.8571 -54.4611L4.93008 -59.6862L20.9937 -35.3024L6.12248 -31.5914ZM56.864 6.25561C52.9417 6.35011 25.0236 7.03518 -14.2288 8.0467L-27.1075 -20.6193L22.6344 -33.0346L56.864 6.25561ZM69.4222 -2.3326L58.8454 4.48814L36.1563 -21.5557L51.124 -29.7595L69.4222 -2.3326ZM84.7664 -12.2287L71.6658 -3.77793L53.4729 -31.048L67.8152 -38.9082L84.7664 -12.2287ZM93.1355 -15.07L87.2049 -13.3734L70.1619 -40.1946L79.3894 -45.2522L93.1355 -15.07ZM112.956 -20.7396L95.7444 -15.8152L82.209 -45.54L118.097 -41.4359C116.918 -36.533 115.107 -29.2612 112.956 -20.7396ZM170.993 -18.1024L140.002 13.6755L115.287 -7.98076C118.615 -21.0768 121.538 -32.6931 123.25 -39.7887L170.993 -18.1024ZM172.629 -20.2285L123.869 -42.3766C124.088 -43.3022 124.286 -44.1483 124.434 -44.8098C125.53 -49.717 136.106 -73.7701 150.57 -105.415L205.092 -82.1822L172.629 -20.2285ZM217.89 -36.3784C216.052 -25.4557 216.043 -6.76309 216.1 -0.483531L175.072 -19.1182L207.565 -81.1299L230.861 -71.2037C223.722 -53.6793 218.522 -40.1259 217.89 -36.3784ZM321.799 -32.4547L308.402 4.79954L218.812 0.345442C218.76 -4.76368 218.688 -24.8479 220.56 -35.966C221.163 -39.5482 226.282 -52.8568 233.333 -70.1492L321.799 -32.4547ZM339.052 -80.4362L322.682 -34.9116L234.319 -72.5631C239.84 -86.0478 246.418 -101.702 252.904 -116.969L339.052 -80.4362ZM380.878 -65.5319L344.896 -80.7905L361.616 -127.286L401.713 -106.506L380.878 -65.5319ZM458.388 -32.663L383.355 -64.4817L416.871 -130.4L494.46 -100.903L458.388 -32.663ZM533.894 -71.5194L520.822 -47.2838L482.751 -67.2886L495.677 -91.7411L533.894 -71.5194ZM535.133 -73.8216L496.9 -94.0541L507.939 -114.935L544.787 -91.7153L535.133 -73.8216ZM570.392 -42.8555L546.355 -31.8749L531.191 -60.8631L547.057 -90.285L556.477 -84.3469C557.618 -83.0068 558.335 -82.0555 558.497 -81.6195C558.97 -80.2386 563.932 -64.0286 570.392 -42.8555ZM582.022 -13.9339C572.584 -44.9258 563.491 -74.7279 561.455 -81.2115L632.217 -36.621L582.022 -13.9339ZM614.089 25.12L593.641 24.2417C590.274 13.173 586.52 0.83938 582.788 -11.4169L632.593 -33.928L614.089 25.12ZM647.612 -9.08249C647.628 -9.04598 647.666 -9.02879 647.684 -8.99657C647.729 -8.91711 647.753 -8.83336 647.816 -8.76463C647.993 -8.56276 659.816 5.14531 668.988 27.4781L619.656 25.3584L637.47 -31.4754L647.612 -9.08249ZM764.137 -84.9483L733.635 -89.0673L735.759 -144.918L772.811 -141.688L764.137 -84.9483ZM805.153 -83.737L769.357 -83.3505L778.206 -141.217L821.098 -137.48L805.153 -83.737ZM861.507 -84.3469L807.971 -83.7693L823.828 -137.242L864.502 -133.699L861.507 -84.3469ZM897.42 -84.7378L864.217 -84.377L867.193 -133.465L900.143 -130.593C899.666 -113.947 898.971 -99.5948 897.978 -90.0703C897.81 -88.4553 897.622 -86.662 897.42 -84.7378ZM942.067 96.899L946.404 108.902C927.104 115.239 907.717 121.601 888.376 127.936C891.099 102.655 893.953 76.0222 896.705 50.2275L925.313 51.4559L942.067 96.899ZM926.284 38.5339L916.131 10.9932L955.623 1.86165L966.767 40.2734L926.284 38.5339ZM951.517 107.22L947.171 95.1895L931.141 51.7072L970.575 53.4017L983.167 96.8152C972.666 100.269 962.105 103.741 951.517 107.22ZM994.302 135.193L967.327 150.999L955.941 119.477C966.469 116.015 976.768 112.628 986.798 109.325L994.302 135.193ZM1025.29 124.994L996.796 134.127L989.36 108.483C998.531 105.461 1007.47 102.519 1016.13 99.6629L1025.29 124.994ZM1062.14 132.931L1066.96 142.426L1038.25 152.5L1028.3 125.385C1028.3 125.385 1028.3 125.385 1028.3 125.382L1018.69 98.8211C1028.51 95.5846 1037.96 92.4663 1047 89.4833L1062.14 132.931ZM1069.51 141.534L1064.64 131.954L1049.55 88.6394C1055.78 86.5841 1061.81 84.5954 1067.61 82.6798C1071.63 92.7648 1081.71 118.094 1088.09 135.014L1069.51 141.534ZM1077.24 156.727L1070.7 143.875L1089.01 137.452C1090.72 142.028 1092.08 145.815 1092.88 148.271L1077.24 156.727ZM1091.65 174.575L1078.9 158.801L1093.84 150.733C1095.27 153.524 1098.66 158.449 1103.38 164.776L1091.65 174.575ZM1052.94 213.799L1092.93 180.384L1105.77 196.277L1063.64 228.864L1052.94 213.799ZM1018.6 231.609L1047.45 218.257C1047.67 218.158 1047.88 218.03 1048.06 217.879L1050.89 215.513L1073.22 246.94L1034.31 265.006L1018.6 231.609ZM1012.21 275.274L999.607 240.39L1016.16 232.734L1031.88 266.138L1012.21 275.274ZM965.113 312.831L961.141 301.863L1008.2 280.013L1012.28 291.342L965.113 312.831ZM972.648 333.632L966.005 315.294L1013.51 293.65L1027.1 311.405L972.648 333.632ZM1068.1 364.968C1042.15 382.571 1017.28 398.968 1000.23 409.814L982.602 361.124L982.833 361.031C983.523 360.756 983.85 359.996 983.563 359.337C983.279 358.675 982.481 358.362 981.797 358.639L981.712 358.671L973.533 336.085L1028.74 313.548L1068.1 364.968ZM1053.71 337.414L1033.73 311.299L1062.36 297.246L1078.97 320.223L1053.71 337.414ZM1055.31 339.502L1080.51 322.351L1097 345.156C1088.9 350.768 1080.67 356.414 1072.51 361.97L1055.31 339.502ZM1015.88 457.853L1001.98 414.882C1019.35 403.878 1044.74 387.105 1071.11 369.183L1091.08 398.068L1015.88 457.853ZM1016.78 460.497L1092.58 400.242L1107.78 422.25L1026 484.305L1016.78 460.497ZM980.95 474.879L1014.4 461.79L1023.78 485.995L1023.01 486.581L989.875 499.467L980.95 474.879ZM954.632 553.958L942.681 520.619L988.257 502.89L1000.53 536.713L954.632 553.958ZM955.513 556.408L981.488 546.65L998.087 593.723L971.94 602.227L955.513 556.408ZM931.701 727.715L967.072 715.588L969.994 758.415L942.953 761.709L931.701 727.715ZM929.153 728.587L940.227 762.04L893.368 767.75L884.927 743.751L929.153 728.587ZM919.818 700.378L928.337 726.117L884.062 741.296L875.379 716.608L919.818 700.378ZM916.976 691.794L919 697.907L874.514 714.153L872.393 708.123L916.976 691.794ZM871.53 705.666L862.413 679.747L876.643 675.011L885.335 700.61L871.53 705.666ZM839.609 720.132L869.867 709.05L871.985 715.074L841.68 726.143C841.044 724.279 840.353 722.28 839.609 720.132ZM815.201 764.907L769.404 755.312L837.485 730.447C839.869 737.457 841.293 741.846 841.544 743.055C842.122 745.815 842.622 750.155 843.056 755.357L815.201 764.907ZM820.179 765.951L843.269 758.033C843.572 762.031 843.839 766.421 844.072 770.959L820.179 765.951ZM844.334 776.315C844.572 781.514 844.769 786.742 844.93 791.63L837.121 792.364L675.911 757.285C674.909 754.743 672.469 748.57 668.873 739.546L844.334 776.315ZM738.514 692.026L759.845 753.306L666.567 733.758C664.832 729.412 662.898 724.58 660.778 719.297L738.514 692.026ZM699.956 581.148L709.854 609.696C709.854 609.699 709.854 609.699 709.854 609.699L737.658 689.567L659.805 716.876C651.86 697.08 641.531 671.558 629.863 643.175C626.06 633.921 621.187 623.795 615.572 613.208L699.956 581.148ZM605.762 566.891C610.126 564.726 620.499 560.482 635.108 554.778L648.486 597.582C648.52 597.691 648.619 597.749 648.679 597.844L614.333 610.895C607.914 598.937 600.591 586.436 592.816 573.956C596.969 571.486 601.284 569.111 605.762 566.891ZM571.766 541.787L578.272 522.214L667.226 486.775L682.599 531.11C664.541 537.894 648.464 544.01 635.428 549.078C635.206 549.027 634.971 549.01 634.738 549.076C634.411 549.171 634.16 549.381 633.992 549.637C618.674 555.607 607.784 560.057 603.279 562.29C598.679 564.567 594.266 566.987 590.021 569.502C584.095 560.126 577.945 550.809 571.766 541.787ZM569.645 548.166C574.995 556.035 580.314 564.116 585.469 572.262C578.034 576.946 571.266 581.941 565.299 587.099C563.251 584.771 561.148 582.458 559.01 580.158L569.645 548.166ZM540.201 579.755C543.596 583.135 546.873 586.563 550.056 590.027L539.712 621.137C539.712 621.143 539.708 621.147 539.705 621.154C539.705 621.156 539.705 621.156 539.705 621.158L524.113 668.068L511.462 666.191L540.201 579.755ZM375.687 646.036L376.83 641.665L407.016 501.707C439.191 511.869 472.519 526.245 503.979 548.928C516.423 557.901 527.723 567.571 538.058 577.669L508.759 665.787L375.687 646.036ZM366.926 679.517L374.367 651.078L397.742 654.549L395.095 682.607L366.926 679.517ZM366.262 682.047L394.853 685.186L392.75 707.481L360.477 704.147L366.262 682.047ZM369.032 650.17L361.508 678.92L226.217 664.073L235.106 624.796L369.032 650.17ZM245.712 577.929L380.665 598.288L371.561 640.512L370.348 645.14L236.251 619.734L245.712 577.929ZM241.958 533.388L135.573 523.028L142.371 475.01L251.705 490.314L241.958 533.388ZM77.7443 310.724L154.752 371.623C155.021 371.836 155.328 371.997 155.66 372.096L208.102 387.943C211.464 389.478 244.885 404.696 270.869 415.092C268.051 430.802 265.837 443.151 264.521 450.48C258.851 447.48 254.263 444.076 251.026 440.043C224.673 407.217 200.341 399.81 176.809 392.648C171.181 390.936 165.36 389.162 159.566 387.058C146.15 382.181 134.047 373.41 122.345 364.927C108.791 355.106 94.7784 344.95 78.6968 340.953C78.2194 340.835 77.6748 340.721 77.1548 340.603L77.7443 310.724ZM78.2418 228.351L76.5564 250.697L9.82964 254.294L9.21777 231.248L78.2418 228.351ZM7.29919 158.889L60.3157 159.54L55.2099 216.352L8.87483 218.296L7.29919 158.889ZM-48.2119 232.599L-41.405 233.297C-41.0666 233.333 -40.7259 233.342 -40.3897 233.329L-15.484 232.285L-7.8769 281.718C-7.77829 282.356 -7.20673 282.825 -6.53882 282.825H-6.51416L7.87521 282.569L8.47139 305.082L-38.4307 304.068C-41.1405 284.122 -44.7289 257.794 -48.2119 232.599ZM-40.2843 330.651C-48.5414 330.276 -54.9853 330.016 -58.466 329.883C-69.7086 318.552 -123.758 264.078 -167.2 220.37L-53.7413 232.03C-49.1466 265.277 -44.0699 302.597 -40.2843 330.651ZM-26.8408 158.47L-17.4653 219.404L-40.4726 220.368L-50.0431 219.385C-53.7234 192.905 -57.0674 169.326 -58.8358 158.077L-26.8408 158.47ZM93.8908 53.6637C91.8445 61.5797 90.5176 66.691 90.4616 66.91C90.4257 67.0539 90.4011 67.2 90.3876 67.3481L88.8703 87.4625L5.3761 86.4338L3.6301 20.5435C29.4189 19.8864 48.1721 19.4246 54.9342 19.2593L93.8908 53.6637ZM97.5935 39.3199L62.0818 7.9565C61.9003 7.79543 61.6941 7.67087 61.4991 7.53342L60.5869 6.48755L87.178 -10.661L112.218 -17.8253C107.738 -0.10985 102.036 22.0834 97.5935 39.3199ZM106.942 47.5753L102.128 43.3252C105.772 29.1962 110.414 11.1521 114.556 -5.11158L138.157 15.5654L106.942 47.5753ZM185.151 56.7433L153.43 88.6308L108.93 49.332L140.152 17.3157L185.151 56.7433ZM195.652 65.9436L163.289 97.3414L155.415 90.3875L187.148 58.4915L195.652 65.9436ZM221.252 84.8639L188.428 56.1034L188.235 36.8266V36.8244L187.762 -10.487L216.174 2.41786L221.252 84.8639ZM221.344 42.4232L218.91 2.94403L234.595 3.7236L235.998 41.9292L221.344 42.4232ZM237.596 85.4502L224.065 86.5691L221.503 45.011L236.092 44.5192L237.596 85.4502ZM238.699 41.839L237.305 3.8589L252.952 4.63847L254.308 41.3129L238.699 41.839ZM255.883 83.9361L240.292 85.2268L238.793 44.4269L254.404 43.9029L255.883 83.9361ZM275.562 40.5977L257.008 41.2227L255.661 4.77162L272.249 5.5963L275.562 40.5977ZM278.267 40.5075L274.977 5.73159L308.162 7.3831L311.672 39.3822L278.267 40.5075ZM316.016 78.9623L282.172 81.7606L278.512 43.0911L311.957 41.9636L316.016 78.9623ZM354.513 17.1675L336.728 52.9163L317.26 40.7481L313.506 6.51547L316.401 -1.538L354.513 17.1675ZM362.378 -25.7757L373.206 -20.4067L355.676 14.8288L317.289 -4.01201L326.987 -30.9815L362.378 -25.7757ZM362.022 -28.4473L327.884 -33.4727L344.015 -78.3337L379.694 -63.2018L362.022 -28.4473ZM386.728 -39.7222C386.551 -39.4086 386.519 -39.0414 386.636 -38.7042C386.748 -38.3649 387.006 -38.0879 387.34 -37.9375L399.66 -32.3688L391.062 -14.4729L364.597 -27.5926L382.169 -62.1516L396.018 -56.2801L386.728 -39.7222ZM400.79 -34.7204L389.783 -39.6964L398.497 -55.2278L408.585 -50.9498L400.79 -34.7204ZM426.099 -23.2802L403.237 -33.6166L411.06 -49.9017L434.598 -39.9197L426.099 -23.2802ZM453.558 -10.8671L428.547 -22.1742L437.073 -38.8696L457.453 -30.2277L453.558 -10.8671ZM475.803 2.05277L454.192 13.3341L458.076 -5.95988L475.803 2.05277ZM499.512 -10.3259L478.741 0.519396L458.605 -8.5864L462.498 -27.9405L499.512 -10.3259ZM501.849 -12.1041L463.283 -30.4575L481.527 -64.9757L519.581 -44.9816L501.849 -12.1041ZM529.814 -24.3196L505.485 -13.2037L521.302 -42.5269L529.814 -24.3196ZM532.255 -25.4342L522.887 -45.4691L529.653 -58.0175L543.915 -30.7603L532.255 -25.4342ZM558.326 -3.22386L545.383 2.62833L533.363 -23.0697L545.127 -28.443L558.326 -3.22386ZM560.772 -4.32772L547.568 -29.5598L571.16 -40.3342C573.796 -31.6859 576.658 -22.3009 579.547 -12.815L560.772 -4.32772ZM511.691 20.7196L513.937 19.7038C514.186 19.9164 514.477 20.0689 514.809 20.0689C514.979 20.0689 515.152 20.0388 515.32 19.9723C515.867 19.7597 516.174 19.2421 516.147 18.7073L580.314 -10.298C583.911 1.51802 587.524 13.3942 590.788 24.1171L511.691 20.7196ZM600.327 55.4891L579.933 62.05L571.046 36.2338L594.784 37.2539C596.987 44.4978 598.89 50.7558 600.327 55.4891ZM603.846 57.7999C602.387 53.0022 600.226 45.8937 597.635 37.3764L610.079 37.9111L603.846 57.7999ZM647.857 77.794L615.196 87.6493L607.353 64.6185L615.646 38.1516L635.522 39.0042L647.857 77.794ZM673.683 40.645C675.943 48.0735 677.756 56.1549 678.747 64.7904C678.883 65.9973 679.016 67.1785 679.146 68.3511L650.434 77.0144L638.387 39.1288L673.683 40.645ZM673.112 -6.57194L685.305 28.1804L671.94 27.6048C664.696 9.57794 655.643 -3.11002 651.777 -8.09029L673.112 -6.57194ZM672.177 -9.23495L649.766 -10.8306L640.005 -32.3795L665.191 -29.1453L672.177 -9.23495ZM747.419 -3.87887L675.102 -9.02664L668.176 -28.763L752.105 -17.9843L747.419 -3.87887ZM857.618 6.56487L855.512 35.4929L741.641 30.5985L752.119 -0.947408L857.618 6.56487ZM859.481 -18.9893L857.807 3.98131L752.962 -3.48371L758.166 -19.1504L859.481 -18.9893ZM884.557 36.7407L858.215 35.6089L862.193 -18.985L890.474 -18.9399C888.654 -1.75061 886.646 17.1396 884.557 36.7407ZM919.894 166.573L882.934 178.185C884.171 166.827 885.485 154.723 886.841 142.159C896.414 139.022 905.899 135.912 915.27 132.837L919.894 166.573ZM922.5 165.755L917.877 131.982C929.047 128.314 940.05 124.7 950.829 121.158L962.405 153.22L922.5 165.755ZM970.703 176.197L926.073 191.855L922.859 168.369L963.293 155.668L970.703 176.197ZM1012.53 161.524L975.781 174.414L968.233 153.505L995.483 137.536L1012.53 161.524ZM1015.14 160.607L997.998 136.473L1026.18 127.44L1035.71 153.391L1015.14 160.607ZM1030.38 182.045L1016.71 162.815L1068.15 144.769L1074.88 158.002L1030.38 182.045ZM1031.9 184.188L1076.52 160.085L1089.61 176.28L1049.88 209.484L1031.9 184.188ZM1003.5 199.53L1029.54 185.466L1047.82 211.2L1044.78 213.743L1016.37 226.882L1003.5 199.53ZM987.896 207.959L1001.14 200.806L1013.94 228.009L997.827 235.462L987.896 207.959ZM947.592 264.452L994.705 242.658L1007.3 277.548L960.249 299.4L947.592 264.452ZM881.791 350.791L878.517 341.66C878.463 341.381 878.38 340.936 878.277 340.341L958.694 302.999L962.658 313.95L881.791 350.791ZM888.024 368.17L882.677 353.257L963.55 316.411L970.154 334.65L888.024 368.17ZM944.19 373.618L936.348 352.016C936.262 351.773 936.094 351.59 935.899 351.444L971.043 337.098L979.213 359.665L944.19 373.618ZM978.195 422.95C977.884 423.049 972.745 424.89 963.954 428.057L945.082 376.071L980.103 362.12L997.908 411.289C987.163 418.088 979.948 422.392 978.195 422.95ZM965.729 432.95C974.475 429.797 979.59 427.965 979.901 427.866C981.936 427.218 989.12 422.985 999.634 416.364L1013.53 459.335L980.06 472.429L965.729 432.95ZM933.006 493.632L978.442 475.859L987.369 500.442L941.803 518.168L933.006 493.632ZM886.617 593.736L870.773 548.591L930.139 525.5L946.427 570.93L886.617 593.736ZM930.323 619.047C930.312 618.995 930.318 618.942 930.298 618.888L917.386 584.791L947.308 573.385L959.709 607.976L930.323 619.047ZM909.707 661.264L900.388 633.109L959.913 610.684L962.174 643.8L909.707 661.264ZM890.234 670.488L907.97 664.585L916.155 689.32L898.547 695.772L890.234 670.488ZM887.679 671.337L896.019 696.697L887.863 699.685L879.196 674.161L887.679 671.337ZM866.678 645.808L886.144 638.476L894.78 666.232L876.32 672.374L866.678 645.808ZM852.371 651.201L864.161 646.76L873.767 673.224L861.55 677.292L852.371 651.201ZM819.664 663.521L849.852 652.148L859.425 679.364C859.427 679.366 859.425 679.369 859.427 679.369C859.427 679.371 859.429 679.371 859.429 679.371L869.002 706.594L838.755 717.671C834.035 704.07 827.475 685.485 819.664 663.521ZM814.601 665.334C824.256 692.465 831.973 714.361 836.642 727.984L764.581 754.3L762.918 753.952L741.051 691.135L814.601 665.334ZM784.798 582.033C795.383 611.511 805.268 639.118 813.726 662.884L740.197 688.676L712.822 610.031L784.798 582.033ZM686.822 535.07C708.561 526.909 733.027 517.831 758.339 508.5C767.048 532.664 775.686 556.666 783.917 579.581L711.965 607.57L686.822 535.07ZM699.102 578.685L651.084 596.931C651.077 596.901 651.086 596.871 651.075 596.841L637.623 553.799C650.521 548.782 666.426 542.73 684.303 536.013L699.102 578.685ZM740.036 457.765C745.514 472.931 751.054 488.293 756.577 503.614C731.308 512.932 706.869 522.002 685.121 530.165L669.727 485.776L740.036 457.765ZM661.161 461.072L731.456 434.006C734 441.046 736.566 448.155 739.15 455.31L668.873 483.311L661.161 461.072ZM589.416 488.693L658.649 462.039L666.37 484.307L579.348 518.98L589.416 488.693ZM567.7 497.055L582.909 491.199L567.935 536.238C564.916 531.896 561.901 527.639 558.909 523.494L567.7 497.055ZM545.591 505.568L564.448 498.307L556.964 520.812C553.106 515.51 549.301 510.409 545.591 505.568ZM413.272 446.806C456.882 455.641 497.205 463.946 501.208 464.768C509.042 468.374 531.002 494.004 554.877 527.083L542.682 563.77C533.28 554.982 523.131 546.527 512.106 538.579C477.97 513.965 442.035 498.812 407.666 488.261L413.272 446.806ZM275.992 417.115C286.885 421.359 295.869 424.439 299.744 424.776C306.425 425.36 360.242 436.07 410.62 446.269L405.048 487.471C379.573 479.801 355.006 474.6 332.732 469.888C307.129 464.474 285.117 459.797 269.571 452.914C270.808 446.009 273.068 433.42 275.992 417.115ZM248.251 372.594L277.523 377.995C275.463 389.487 273.54 400.21 271.81 409.857C262.923 406.27 253.046 402.091 243.578 397.991L248.251 372.594ZM212.646 366.022L245.595 372.104L241.037 396.887C228.821 391.574 217.536 386.512 210.326 383.22L212.646 366.022ZM150.675 335.644L212.807 344.598L207.712 382.393L157.787 367.309L146.502 358.381L150.675 335.644ZM129.459 332.588L148.001 335.26L144.106 356.489L115.591 333.939L129.459 332.588ZM100.994 305.522L151.948 313.743L148.467 332.709L129.692 330.005C129.582 329.988 129.47 329.988 129.353 329.996L112.66 331.618L80.2859 306.018L100.994 305.522ZM79.6338 281.757L155.707 293.258L152.417 311.194L101.314 302.95C101.229 302.935 101.15 302.935 101.056 302.93L77.9953 303.482L79.6338 281.757ZM83.4104 159.823L79.2236 215.345L57.9331 216.236L63.0254 159.574L83.4104 159.823ZM114.415 160.203L112.947 181.744L87.4874 177.644L88.8277 159.89L114.415 160.203ZM117.113 120.613L114.592 157.62L89.0227 157.306L91.9543 118.45L117.113 120.613ZM115.293 92.9818L127.724 104.894L117.898 118.079L92.1494 115.866L94.0702 90.4111L115.293 92.9818ZM129.373 102.809L116.878 90.8363C116.665 90.6323 116.389 90.5035 116.091 90.467L94.2651 87.8297L95.7646 67.943C96.0044 67.0195 96.9794 63.2591 98.425 57.6668L137.893 92.5243L129.373 102.809ZM148.963 129.499L120.655 118.837L130.577 105.524L139.885 94.2853L153.99 106.744L148.963 129.499ZM186.223 119.429L181.043 141.584L151.516 130.459L156.303 108.786L160.456 112.454C161.142 113.06 161.951 113.521 162.834 113.813C163.702 114.099 172.125 116.818 186.223 119.429ZM199.984 94.3111C198.285 99.6586 197.335 104.579 196.817 107.976C181.957 105.704 171.921 102.962 168.521 101.959L165.277 99.0981L197.647 67.6896L218.899 86.3092C212.948 86.0193 202.425 86.6356 199.984 94.3111ZM199.496 108.369C200.002 105.056 200.932 100.23 202.573 95.0649C204.868 87.8318 217.742 88.7016 221.515 89.1183L222.848 110.77C214.224 110.22 206.39 109.357 199.496 108.369ZM242.485 124.399L237.06 164.653L181.045 158.584L183.349 143.57L188.879 119.908C202.501 122.292 220.853 124.448 242.485 124.399ZM287.564 121.079C288.367 126.761 289.414 133.956 289.853 136.045C290.337 138.337 286.291 157.414 283.461 169.681L273.713 168.624C273.706 168.624 273.704 168.62 273.697 168.618C273.691 168.618 273.682 168.62 273.675 168.62L239.746 164.943L245.214 124.375C258.288 124.236 272.503 123.274 287.564 121.079ZM318.428 100.941C308.187 103.911 298.63 106.207 290.151 107.579C287.757 107.966 285.388 108.309 283.033 108.631L282.331 84.3485L316.298 81.5373L318.428 100.941ZM349.363 63.9077L321.283 77.4075L317.623 44.0661L349.363 63.9077ZM374.152 48.226L371.693 53.1697L352.157 62.5633L339.012 54.3466L347.07 38.1516L374.152 48.226ZM380.47 35.5144L375.317 45.8808L348.237 35.8065L353.513 25.1974L380.47 35.5144ZM389.536 17.2706L381.633 33.1714L354.681 22.8543L362.651 6.83332L389.536 17.2706ZM401.335 -6.46457L390.702 14.9297L363.817 4.49244L375.613 -19.2148L391.132 -11.5221H391.134L401.335 -6.46457ZM415.433 -2.39274L393.467 -13.281L402.106 -31.2628L424.911 -20.9522L415.433 -2.39274ZM448.55 14.0213L417.833 -1.20298L427.356 -19.8462L453.031 -8.24063L448.55 14.0213ZM490.091 27.6198L447.439 46.8988L453.528 16.6306L478.181 3.76011L490.091 27.6198ZM516.05 61.3606L489.531 73.5482L475.915 50.4573C489.941 43.6667 500.8 38.1903 506.697 35.1815L516.05 61.3606ZM553.709 70.4836L527.979 78.7604L511.877 33.6911L541.938 34.9839L553.709 70.4836ZM556.276 69.6589L544.818 35.1085L568.157 36.1093L577.369 62.8726L556.276 69.6589ZM586.132 88.3387L564.468 94.3648L557.089 72.1179L578.214 65.3273L586.132 88.3387ZM623.37 128.348L604.877 134.523L592.079 97.3414L610.877 91.6674L623.37 128.348ZM652.328 91.85C652.328 91.85 652.328 91.85 652.328 91.8521L660.038 116.103L628.476 126.643L616.034 90.1104L648.645 80.2702L652.328 91.85ZM680.531 82.0355L654.511 89.8398L651.221 79.4928L679.43 70.9797C679.849 74.8475 680.215 78.5242 680.531 82.0355ZM689.924 41.3429L710.273 99.3279L684.704 107.865C684.547 95.6813 683.435 81.9925 681.434 64.509C680.463 56.0454 678.72 48.0971 676.537 40.7674L689.924 41.3429ZM736.046 30.3602L688.2 28.3049L676.037 -6.36363L746.576 -1.34256L736.046 30.3602ZM756.828 83.7815L739.337 43.4648L861.798 48.7264L756.828 83.7815ZM878.916 89.5177L810.214 111.213L797.367 72.9856L869.076 49.0399L883.181 49.6455C881.775 62.821 880.343 76.2069 878.916 89.5177ZM879.651 208.14C880.572 199.794 881.572 190.689 882.625 181.009L920.255 169.187L923.487 192.763L879.651 208.14ZM933.535 227.393L875.742 250.716C876.387 240.279 877.342 228.967 878.696 216.793C878.902 214.918 879.117 212.978 879.335 211.011L924.052 195.325L933.535 227.393ZM982.113 207.788L936.038 226.384L926.584 194.436L971.59 178.647L982.113 207.788ZM976.667 176.865L1014.1 163.734L1028.02 183.32L1001.21 197.801C1001.21 197.801 1001.21 197.801 1001.21 197.801C1001.2 197.804 1001.2 197.806 1001.2 197.808L986.999 205.479L976.667 176.865ZM936.78 228.89L982.996 210.234L992.923 237.729L945.842 259.508L936.78 228.89ZM875.888 320.377C875.39 314.248 874.96 306.832 874.747 298.148L945.145 265.581L953.547 288.79L875.888 320.377ZM876.121 323.098L954.437 291.243L957.802 300.538L877.84 337.67C877.356 334.513 876.71 329.653 876.121 323.098ZM825.912 420.743L818.42 399.394L876.437 375.714L884.248 397.502L825.912 420.743ZM903.095 450.072C885.115 456.597 864.943 463.931 843.774 471.654L826.778 423.206L885.129 399.958L903.095 450.072ZM896.752 392.521L888.903 370.627L933.732 352.329C933.714 352.505 933.732 352.688 933.797 352.866L941.691 374.615L896.752 392.521ZM915.743 445.487L897.635 394.974L942.581 377.067L961.424 428.97C950.45 432.924 934.675 438.626 915.743 445.487ZM917.498 450.379C936.446 443.516 952.232 437.814 963.199 433.86L977.554 473.408L932.125 491.179L917.498 450.379ZM861.153 521.177L920.452 498.49L929.258 523.045L869.912 546.13L861.153 521.177ZM830.566 589.208L822.837 567.236L868.265 549.568L876.385 572.711L830.566 589.208ZM838.599 612.046L831.431 591.661L877.248 575.167L884.1 594.695L838.599 612.046ZM836.949 615.461L848.989 649.691L818.79 661.069C815.004 650.423 810.929 639.009 806.639 627.017L836.949 615.461ZM820.329 568.214L836.084 613.004L805.763 624.564C800.709 610.431 795.359 595.505 789.818 580.081L820.329 568.214ZM810.589 540.525L819.464 565.755L788.939 577.629C785.952 569.309 782.91 560.849 779.833 552.291L810.589 540.525ZM794.63 495.157L809.723 538.066L778.952 549.841C773.837 535.628 768.631 521.162 763.395 506.638C773.734 502.826 784.188 498.986 794.63 495.157ZM776.384 443.284L792.907 490.256C782.451 494.092 771.988 497.938 761.633 501.752C756.095 486.384 750.537 470.977 745.045 455.768L776.384 443.284ZM768.151 419.879L775.518 440.821L744.16 453.315C741.582 446.179 739.023 439.09 736.486 432.071L768.151 419.879ZM729.327 412.258L809.358 381.697L815.06 397.95L768.474 416.965C768.474 416.965 768.474 416.965 768.472 416.965L735.6 429.619C733.489 423.777 731.398 417.985 729.327 412.258ZM654.186 440.956L724.293 414.182C726.364 419.914 728.457 425.708 730.573 431.558L660.307 458.607L654.186 440.956ZM598.175 462.344L651.669 441.916L657.795 459.578L590.481 485.491L598.175 462.344ZM576.488 470.625L591.675 464.826L583.972 487.997L568.764 493.851L576.488 470.625ZM573.236 471.866L565.51 495.103L543.935 503.412C539.611 497.807 535.433 492.571 531.482 487.812L573.236 471.866ZM577.432 459.245L574.298 468.673L529.716 485.699C528.033 483.695 526.394 481.784 524.807 479.973L577.432 459.245ZM524.245 447.334C524.798 447.276 525.242 446.903 525.386 446.387L584.821 396.975L600.325 391.729C589.08 424.903 581.092 448.264 580.827 449.035L578.505 456.023L522.974 477.894C516.355 470.483 510.738 464.968 506.621 461.987L524.245 447.334ZM469.915 416.772L524.003 427.065L523.05 441.469L501.358 459.502C496.69 458.54 482.007 455.519 462.563 451.541L469.915 416.772ZM418.653 407.015L467.263 416.267L459.921 451C446.197 448.198 430.308 444.959 413.969 441.647L418.653 407.015ZM375.613 409.674L414.287 419.136L411.317 441.111C398.035 438.422 384.527 435.701 371.7 433.139L375.613 409.674ZM356.485 365.298L379.712 368.647L369.05 432.61C360.935 430.991 353.128 429.443 345.857 428.015L356.485 365.298ZM335.576 362.287L353.814 364.914L343.21 427.495C336.699 426.219 330.663 425.047 325.286 424.022L335.576 362.287ZM322.709 360.432L332.902 361.901L322.632 423.517C318.862 422.8 315.471 422.169 312.508 421.63L322.709 360.432ZM307.606 358.256L320.035 360.048L309.85 421.149C304.995 420.283 301.647 419.742 300.235 419.617C299.432 419.549 298.314 419.315 296.98 418.967L307.606 358.256ZM287.08 355.299L304.933 357.872L294.369 418.228C289.958 416.875 283.875 414.635 276.929 411.897C279.841 395.661 283.324 376.245 287.08 355.299ZM252.355 350.295L281.732 354.528C280.446 361.699 279.191 368.694 277.98 375.442L248.72 370.042L252.355 350.295ZM215.481 344.982L249.681 349.911L246.066 369.553L212.991 363.449L215.481 344.982ZM215.582 324.013L213.154 342.029L151.143 333.095L154.613 314.175L215.582 324.013ZM158.378 293.661L218.448 302.741L215.927 321.442L155.081 311.626L158.378 293.661ZM160.676 266.172L156.173 290.719L79.8287 279.184L81.7607 253.579L160.676 266.172ZM136.023 188.086L128.844 220.592C123.499 219.864 118.256 219.151 113.153 218.455L115.448 184.774L136.023 188.086ZM142.106 160.545L136.584 185.549L115.625 182.176L117.12 160.238L142.106 160.545ZM142.676 157.968L117.297 157.654L119.776 121.289L148.396 132.07L142.676 157.968ZM178.34 158.406L145.433 158L150.948 133.03L180.525 144.172L178.34 158.406ZM227.721 233.941C208.389 231.351 189.179 228.763 170.659 226.259L180.653 161.142L236.713 167.218L227.721 233.941ZM266.586 203.797C250.668 201.27 238.932 199.406 235.182 198.809L239.4 167.507L271.936 171.034L266.586 203.797ZM313.817 175.572C311.97 185.878 309.868 197.617 307.593 210.311C293.759 208.114 280.56 206.018 269.253 204.221L274.623 171.324L313.817 175.572ZM443.947 94.498L442.703 66.7232C443.057 66.4741 443.333 66.1369 443.528 65.7439C454.423 60.7357 464.551 55.9401 473.496 51.6256L487.088 74.6693L443.947 94.498ZM498.106 93.3554L445.097 120.155L444.07 97.2984L488.419 76.9264L498.106 93.3554ZM500.498 92.1463L490.86 75.8032L516.929 63.8282L522.985 80.777L500.498 92.1463ZM537.722 122.024L505.799 132.173L501.41 94.5989L523.866 83.2424L537.722 122.024ZM532.881 92.4771L528.848 81.1979L554.527 72.9426L558.797 85.8195L532.881 92.4771ZM567.648 112.508L542.852 120.394L533.757 94.9339L559.615 88.2893L567.648 112.508ZM570.214 111.692L565.288 96.8367L586.982 90.802L591.81 104.826L570.214 111.692ZM580.489 142.668L571.033 114.159L592.655 107.285L602.324 135.375L580.489 142.668ZM628.778 212.235C620.983 214.733 613.376 217.166 605.977 219.529L581.307 145.136L603.171 137.836L628.778 212.235ZM649.654 205.533C643.448 207.528 637.338 209.491 631.34 211.413L605.724 136.984L624.208 130.809L649.654 205.533ZM670.631 149.414L640.675 162.467L629.314 129.106L660.825 118.583L670.631 149.414ZM662.591 115.248L655.3 92.3182L680.764 84.6813C681.521 93.5831 681.943 101.448 682.008 108.767L662.591 115.248ZM676.315 158.408L663.38 117.728L682.014 111.507C681.958 127.592 680.118 141.322 676.315 158.408ZM711.743 103.524L681.241 195.357C676.42 196.912 671.63 198.459 666.908 199.979C672.789 181.473 676.969 167.651 678.348 161.649C682.689 142.748 684.735 128.101 684.722 110.603L711.134 101.783L711.743 103.524ZM713.496 98.2498L712.826 98.4753L692.82 41.4675L731.801 43.1405L713.496 98.2498ZM719.877 96.1194L736.952 44.7168L754.273 84.6341L719.877 96.1194ZM771.154 123.546L748.396 130.732L735.168 93.757L755.311 87.0308L771.154 123.546ZM773.728 122.734L757.866 86.176L794.814 73.8381L807.646 112.022L773.728 122.734ZM814.894 133.584L782.926 143.936L774.767 125.133L808.475 114.488L814.894 133.584ZM874.289 132.549C857.096 138.178 839.972 143.774 823.017 149.309L817.868 133.992C817.868 133.99 817.868 133.99 817.868 133.99C817.868 133.988 817.868 133.988 817.868 133.988L811.044 113.678L878.613 92.3396C877.154 105.951 875.701 119.457 874.289 132.549ZM875.578 253.591L934.276 229.899L943.372 260.651L874.646 292.439C874.507 281.319 874.733 268.358 875.578 253.591ZM807.612 368.593L865.683 345.723L869.365 355.995L811.01 378.278L807.612 368.593ZM805.106 369.581L808.495 379.238L728.441 409.809C727.377 406.863 726.317 403.934 725.263 401.026L805.106 369.581ZM715.735 374.677C715.832 374.666 715.926 374.662 716.02 374.632L797.501 347.907L804.243 367.122L724.38 398.573C721.435 390.432 718.548 382.451 715.735 374.677ZM650.544 430.454L720.249 402.999C721.296 405.89 722.349 408.802 723.407 411.731L653.33 438.493L650.544 430.454ZM602.485 449.379L648.036 431.44L650.815 439.453L599.237 459.148L602.485 449.379ZM559.633 389.366L561.76 359.139L593.805 362.676L601.692 385.769L582.573 392.24L559.633 389.366ZM529.281 388.172L579.577 394.476L525.915 439.088L529.281 388.172ZM474.072 397.1L477.336 381.665L526.594 387.837L525.43 405.433L474.072 397.1ZM473.537 399.638L525.258 408.033L524.175 424.456L470.45 414.231L473.537 399.638ZM420.807 391.085L470.87 399.207L467.799 413.727L419.001 404.44L420.807 391.085ZM405.501 372.362L420.323 374.499L414.639 416.549L399.454 412.835L405.501 372.362ZM382.384 369.031L402.829 371.977L396.818 412.189L376.039 407.106L382.384 369.031ZM364.985 315.135L388.113 318.238L380.136 366.089L356.92 362.745L364.985 315.135ZM343.907 312.302L362.311 314.774L354.246 362.358L336.004 359.73L343.907 312.302ZM331.017 310.574L341.229 311.944L333.328 359.345L323.132 357.876L331.017 310.574ZM316.298 308.596L328.341 310.213L320.461 357.49L308.052 355.703L316.298 308.596ZM295.947 305.862L313.62 308.235L305.381 355.319L287.54 352.746C290.245 337.652 293.085 321.827 295.947 305.862ZM249.235 326.818L252.331 307.863L289.104 313.423C287.943 319.9 286.789 326.337 285.648 332.694L249.235 326.818ZM248.816 329.378L285.191 335.247C284.178 340.906 283.176 346.483 282.19 351.977L245.979 346.758L248.816 329.378ZM246.151 328.946L243.307 346.374L215.826 342.414L218.249 324.445L246.151 328.946ZM221.118 303.147L249.661 307.46L246.57 326.388L218.594 321.872L221.118 303.147ZM192.411 271.236L222.057 275.967L218.794 300.179L188.565 295.611L192.411 271.236ZM189.744 270.811L185.895 295.207L158.845 291.121L163.343 266.597L189.744 270.811ZM222.404 273.397L199.186 269.692L204.877 243.945C211.789 244.872 218.834 245.819 225.991 246.777L222.404 273.397ZM258.851 251.167L254.388 278.501L225.072 273.822L228.669 247.136C238.591 248.465 248.689 249.814 258.851 251.167ZM260.94 238.378C250.791 237.027 240.584 235.661 230.397 234.3L234.835 201.379C238.679 201.991 250.361 203.847 266.169 206.357L260.94 238.378ZM304.186 229.309L265.864 224.975L268.834 206.783C280.132 208.576 293.316 210.67 307.136 212.865C306.181 218.195 305.195 223.693 304.186 229.309ZM341.872 218.384L340.195 232.416C340.195 232.418 340.195 232.418 340.195 232.418C340.195 232.421 340.195 232.421 340.195 232.423L338.263 248.577C328.13 247.256 317.663 245.884 306.956 244.473C308.864 233.821 310.715 223.495 312.47 213.713C322.184 215.255 332.122 216.835 341.872 218.384ZM378.581 199.732L376.07 221.191C356.936 218.15 334.379 214.568 312.927 211.159C314.23 203.883 315.476 196.932 316.653 190.373L378.581 199.732ZM380.562 182.805L378.883 197.157L317.11 187.819C317.836 183.756 318.533 179.867 319.199 176.154L380.562 182.805ZM357.102 147.758L353.504 177.266L319.656 173.6C320.723 167.641 321.698 162.199 322.561 157.377L357.102 147.758ZM325.828 139.093L359.227 130.376L363.884 143.171L358.299 144.728C358.292 144.73 358.287 144.732 358.281 144.732L323.067 154.54C324.244 147.973 325.181 142.724 325.828 139.093ZM358.335 127.923L326.331 136.277C326.57 134.933 326.738 133.986 326.808 133.569C327.987 126.813 326.842 118.121 325.763 112.34C333.505 110.027 341.563 107.377 349.8 104.478L358.335 127.923ZM380.795 122.062L360.95 127.242L352.334 103.58C359.045 101.19 365.861 98.6407 372.708 95.9863L380.795 122.062ZM381.077 113.88L375.225 95.0048C397.464 86.3027 419.922 76.5312 440.024 67.3481L441.289 95.5653L381.077 113.88ZM388.073 136.436L381.848 116.365L441.407 98.2348L442.441 121.293L388.073 136.436ZM420.419 140.186L422.04 130.178C422.069 130.006 422.058 129.837 422.02 129.68L442.562 123.959L443.321 140.953L420.419 140.186ZM417.427 158.644L420 142.765L443.438 143.549L444.216 160.914L417.427 158.644ZM445.392 187.222L413.359 183.75L417.013 161.211L444.332 163.524L445.392 187.222ZM474.151 142.237L446.479 151.038L445.224 123.018L463.87 113.588L474.151 142.237ZM472.396 129.373L466.293 112.364L498.844 95.8982L501.524 118.877L472.396 129.373ZM476.719 141.421L473.275 131.823L501.836 121.532L503.176 133.009L476.719 141.421ZM507.161 167.153L488.222 173.478L477.596 143.869L503.481 135.639L507.161 167.153ZM548.866 153.228L509.779 166.279L506.103 134.804L538.596 124.474L548.866 153.228ZM553.974 151.523L543.726 122.842L568.466 114.977L577.934 143.521L553.974 151.523ZM581.096 227.449L554.846 153.973L578.752 145.989L603.411 220.347C595.732 222.797 588.3 225.162 581.096 227.449ZM621.767 277.153L598.877 283.684L583.485 240.311C591.223 237.865 599.22 235.326 607.448 232.708L621.767 277.153ZM644.867 258.982C640.59 271.921 636.112 285.376 631.598 298.884L610.016 231.892C617.502 229.508 625.181 227.058 633.017 224.552L644.867 258.982ZM656.152 224.605C653.063 234.102 649.733 244.243 646.261 254.762L635.581 223.731C641.583 221.809 647.679 219.853 653.857 217.871L656.152 224.605ZM654.78 203.883L641.518 164.945L671.424 151.914L675.111 163.504C673.278 170.576 669.223 183.859 663.761 200.993C660.749 201.963 657.748 202.93 654.78 203.883ZM666.742 239.007L660.374 220.31C660.928 218.601 661.475 216.915 662.011 215.253C666.679 213.752 671.393 212.235 676.142 210.704L666.742 239.007ZM698.293 236.187L670.447 244.935L682.496 208.657C684.11 208.136 685.728 207.614 687.349 207.092L698.293 236.187ZM737.573 177.124C720.478 182.672 703.784 188.075 687.598 193.304L714.66 111.829L737.573 177.124ZM734.305 159.684L716.045 107.654L718.853 99.2033L732.617 94.6097L746.274 132.785C746.464 133.32 746.988 133.659 747.551 133.659C747.69 133.659 747.833 133.638 747.972 133.593L772.197 125.945L780.364 144.767L734.305 159.684ZM787.375 160.932C771.372 166.144 755.6 171.272 740.13 176.293L735.165 162.138L781.402 147.165L787.375 160.932ZM789.937 160.096L783.966 146.336L815.723 136.052L820.457 150.146C810.214 153.488 800.032 156.81 789.937 160.096ZM828.674 174.204L798.557 183.739L794.745 172.258C804.712 169.009 814.692 165.755 824.655 162.499L828.674 174.204ZM831.242 173.392L827.215 161.664C842.483 156.679 857.701 151.701 872.752 146.772C872.243 151.501 871.737 156.164 871.241 160.73L831.242 173.392ZM837.76 192.377L832.087 175.853L870.936 163.556C870.221 170.117 869.531 176.482 868.861 182.605L837.76 192.377ZM847.095 219.563L838.605 194.838L868.552 185.429C867.462 195.415 866.44 204.704 865.51 213.103L847.095 219.563ZM862.386 247.696L857.327 249.367L847.94 222.026L865.194 215.972C863.946 227.301 863.034 237.86 862.386 247.696ZM863.009 328.429C863.802 335.949 864.627 340.861 865.062 343.17L806.749 366.136L802.197 353.165L863.009 328.429ZM792.866 326.569L861.321 303.403C861.63 312.27 862.162 319.714 862.738 325.725L801.334 350.701L799.628 345.843L799.626 345.841L792.866 326.569ZM714.886 372.327C712.757 366.445 710.674 360.694 708.641 355.072L790.316 327.432L796.638 345.453L715.148 372.181C715.047 372.214 714.971 372.276 714.886 372.327ZM642.67 407.756L713.472 384.251C715.406 389.603 717.371 395.038 719.364 400.549L649.688 427.991L642.67 407.756ZM624.354 383.598L630.699 381.45L647.182 428.977L603.557 446.157L624.354 383.598ZM618.388 346.702L624.872 364.97L620.017 379.569L605.639 384.433C609.615 372.699 613.918 359.964 618.388 346.702ZM590.577 344.898L615.151 337.582L616.931 342.596C612.204 356.631 607.638 370.141 603.436 382.55L590.577 344.898ZM562.986 341.724L587.787 345.053L592.879 359.968L561.942 356.553L562.986 341.724ZM532.789 335.052L535.584 292.798L563.643 293.876L560.485 338.774L532.789 335.052ZM531.59 353.203L532.618 337.646L560.301 341.364L559.252 356.255L531.59 353.203ZM531.419 355.791L559.071 358.843L556.946 389.029L529.451 385.582L531.419 355.791ZM484.454 348L487.913 331.641L529.933 337.285L528.902 352.907L484.454 348ZM483.916 350.549L528.73 355.495L526.764 385.247L477.876 379.122L483.916 350.549ZM453.764 376.101L462.839 328.274L485.23 331.281L475.186 378.783L453.764 376.101ZM422.999 374.857L474.649 381.33L471.408 396.668L421.155 388.514L422.999 374.857ZM413.086 321.595L427.22 323.491L420.671 371.93L405.884 369.798L413.086 321.595ZM390.791 318.599L410.412 321.234L403.213 369.413L382.81 366.473L390.791 318.599ZM373.284 266.159C381.324 267.186 389.034 268.163 396.307 269.073L388.539 315.683L365.422 312.575L373.284 266.159ZM352.054 263.427C358.391 264.246 364.595 265.045 370.606 265.816L362.743 312.216L344.333 309.745L352.054 263.427ZM374.037 238.541L372.347 252.986C362.387 251.71 351.877 250.351 340.944 248.927L342.717 234.087L374.037 238.541ZM374.34 235.962L343.024 231.51L344.541 218.809C355.443 220.54 366.049 222.224 375.768 223.77L374.34 235.962ZM383.247 183.095L410.257 186.022L403.843 225.602C396.796 224.483 388.229 223.121 378.737 221.614L383.247 183.095ZM423.909 187.547V228.787C423.829 228.774 423.737 228.765 423.66 228.752C422.71 228.6 416.351 227.591 406.51 226.027L412.945 186.312L423.918 187.502C423.918 187.517 423.909 187.532 423.909 187.547ZM401.541 256.688L406.093 228.587C415.921 230.148 422.269 231.158 423.217 231.308C423.425 231.342 423.683 231.366 423.909 231.398V259.444C417.161 258.63 409.661 257.704 401.541 256.688ZM417.808 271.73L410.795 318.67L391.217 316.041L398.99 269.409C405.674 270.244 411.963 271.021 417.808 271.73ZM433.959 273.652L427.567 320.923L413.471 319.029L420.489 272.056C425.339 272.643 429.829 273.173 433.959 273.652ZM439.578 232.103L435.69 260.844C432.861 260.515 429.822 260.155 426.61 259.77V231.682C431.126 232.043 436.864 232.101 439.578 232.103ZM439.928 229.511C437.371 229.508 431.18 229.463 426.61 229.085V187.794L445.294 189.819L439.928 229.511ZM448.044 189.638L473.882 181.009L498.976 253.052C477.872 259.424 464.614 263.122 461.465 263.391C458.923 263.391 450.76 262.581 438.375 261.155L448.044 189.638ZM474.308 178.125H474.306C474.303 178.125 474.303 178.127 474.303 178.127L448.084 186.881L446.598 153.726L475.032 144.687L485.669 174.33L474.308 178.125ZM515.988 192.456L533.936 242.297C521.802 246.079 510.96 249.419 501.553 252.271L476.437 180.157L507.789 169.687L515.988 192.456ZM533.371 185.717L518.121 190.437L510.342 168.835L525.838 163.659L533.371 185.717ZM539.304 194.754L528.393 162.806L549.742 155.676L561.368 188.219L539.304 194.754ZM545.34 212.433L540.145 197.217L562.244 190.669L567.545 205.513L545.34 212.433ZM553.449 236.183L546.181 214.894L568.421 207.964L575.964 229.075C568.135 231.557 560.631 233.926 553.449 236.183ZM562.504 262.697L557.636 248.444C565.084 246.114 572.853 243.67 580.917 241.123L585.962 255.34L562.504 262.697ZM572.265 291.277L563.345 265.158L586.834 257.794L596.286 284.422L572.265 291.277ZM570.398 294.134L586.85 342.313L563.168 339.134L566.346 293.979L570.398 294.134ZM536.861 273.465L560.776 265.966L569.5 291.509L535.754 290.212L536.861 273.465ZM555.068 249.249L559.936 263.503L537.045 270.682L538.112 254.528C543.543 252.844 549.193 251.085 555.068 249.249ZM536.509 241.494L519.002 192.886L534.212 188.178L550.883 236.993C545.918 238.552 541.126 240.051 536.509 241.494ZM498.227 282.855L501.879 265.581C511.601 262.678 522.835 259.253 535.346 255.385L534.279 271.55L498.227 282.855ZM493.74 304.079L497.609 285.775L534.095 274.333L531.832 308.57L493.74 304.079ZM493.2 306.626L531.661 311.16L530.104 334.691L488.451 329.099L493.2 306.626ZM467.519 303.598L490.51 306.306L485.768 328.74L463.321 325.723L467.519 303.598ZM494.655 286.701L491.048 303.761L467.792 301.019V295.124L494.655 286.701ZM466.019 292.957C465.464 293.131 465.089 293.627 465.089 294.187L465.107 300.703L433.529 296.981L436.642 273.964C449.779 275.469 458.618 276.343 461.465 276.343C464.385 276.343 477.784 272.742 498.936 266.46L495.271 283.782L466.019 292.957ZM460.172 327.917L451.079 375.764L423.347 372.291L429.896 323.85L460.172 327.917ZM430.245 321.281L433.184 299.548L464.854 303.282L460.658 325.366L430.245 321.281ZM614.279 335.127L589.737 342.437L573.106 293.739L597.155 286.877L614.279 335.127ZM618.32 338.466L617.298 335.587C617.298 335.587 617.298 335.587 617.298 335.584L599.749 286.136L622.565 279.627L630.159 303.192C626.19 315.058 622.209 326.915 618.32 338.466ZM628.978 376.539L626.411 377.404L627.801 373.227L628.978 376.539ZM637.665 326.487L626.252 360.814L619.777 342.573C623.634 331.124 627.593 319.334 631.551 307.513L637.665 326.487ZM652.617 281.502L639.1 322.166L632.992 303.205C637.508 289.695 642 276.206 646.312 263.18L652.617 281.502ZM654.016 277.294L647.706 258.963C651.167 248.495 654.489 238.382 657.595 228.851L663.934 247.46L654.016 277.294ZM701.765 351.904L681.999 358.594L656.903 285.681L666.888 255.649C672.242 270.411 685.197 306.13 701.765 351.904ZM710.119 267.617L680.697 277.941C675.118 262.558 671.281 251.979 669.788 247.868L699.21 238.625L710.119 267.617ZM746.186 201.678C746.186 201.678 746.186 201.678 746.186 201.68L752.341 219.209L700.864 235.38L689.911 206.265C706.873 200.791 724.266 195.162 741.894 189.443L746.186 201.678ZM748.324 199.638L744.456 188.612C760.23 183.492 776.186 178.303 792.187 173.091L795.993 184.551L748.324 199.638ZM802.293 203.516L754.909 218.403L749.185 202.094L796.813 187.018L802.293 203.516ZM804.86 202.711L799.377 186.207L829.519 176.665L835.189 193.182L804.86 202.711ZM814.28 231.076L805.678 205.18L836.037 195.645L844.556 220.454L814.28 231.076ZM824.012 260.374L815.103 233.546L845.401 222.917L854.774 250.211L824.012 260.374ZM785.705 306.167C785.705 306.165 785.705 306.165 785.705 306.165L782.695 297.585C782.706 297.581 782.722 297.583 782.735 297.578L828.826 283.406L836.438 306.328L791.14 321.657L785.705 306.167ZM734.524 324.866L783.587 308.258L788.592 322.521L739.848 339.016L734.524 324.866ZM720.283 294.638L690.336 304.528C687.109 295.626 684.173 287.532 681.584 280.389L711.035 270.055L720.283 294.638ZM762.837 249.122L712.656 266.728L701.781 237.82L753.201 221.665L762.837 249.122ZM765.376 248.231L755.77 220.858L803.114 205.986L811.743 231.965L765.376 248.231ZM771.15 263.668C771.036 263.711 770.948 263.784 770.856 263.851L766.239 250.688L812.563 234.437L816.631 246.687L771.15 263.668ZM775.285 276.468L771.67 266.166C771.825 266.163 771.979 266.14 772.132 266.082L817.451 249.159L821.454 261.218L775.285 276.468ZM781.839 295.147L776.146 278.922L822.277 263.685L828.006 280.937L781.908 295.111C781.882 295.119 781.864 295.139 781.839 295.147ZM722.836 293.792L713.572 269.166L763.7 251.579L772.728 277.312L722.836 293.792ZM773.589 279.766L782.724 305.802L733.608 322.426L723.755 296.23L773.589 279.766ZM691.222 306.976L721.197 297.074L737.301 339.877L706.866 350.177C701.173 334.45 695.906 319.905 691.222 306.976ZM631.524 375.673L629.182 369.072L655.504 289.888L679.448 359.455L631.524 375.673ZM703.536 356.798C706.456 364.862 709.48 373.217 712.584 381.805L641.818 405.295L633.25 380.585L703.536 356.798ZM861.16 297.963L838.991 305.464L830.989 281.381C830.989 281.381 830.989 281.381 830.989 281.379C830.989 281.377 830.989 281.377 830.989 281.377L824.832 262.841L862.204 250.497C861.057 269.05 860.862 284.884 861.16 297.963ZM386.416 156.018L388.404 139.041L419.263 130.446L414.731 158.417L386.416 156.018ZM414.314 160.981L410.672 183.46L383.55 180.522L386.114 158.593L414.314 160.981ZM366.484 142.449L361.842 129.693L381.566 124.547L385.477 137.16L366.484 142.449ZM385.591 139.825L380.862 180.232L356.192 177.558L359.919 146.972L385.591 139.825ZM376.864 237.626L378.435 224.193C387.884 225.694 396.413 227.049 403.428 228.164L398.86 256.353C391.385 255.415 383.417 254.403 375.026 253.329L376.861 237.635C376.864 237.635 376.864 237.633 376.864 237.633C376.864 237.631 376.864 237.628 376.864 237.626ZM339.155 261.752C342.598 262.201 346.001 262.641 349.374 263.08L341.655 309.386L331.443 308.014L339.155 261.752ZM324.824 259.882C328.744 260.395 332.626 260.902 336.477 261.404L328.767 307.653L316.747 306.038L324.824 259.882ZM304.666 257.236C310.54 258.011 316.375 258.776 322.146 259.532L314.068 305.679L296.404 303.308C299.177 287.848 301.965 272.31 304.666 257.236ZM263.618 238.734L265.447 227.537L303.729 231.864C303.027 235.775 302.315 239.752 301.595 243.766C289.158 242.128 276.445 240.442 263.618 238.734ZM257.055 278.927L261.529 251.523C274.123 253.198 286.789 254.88 299.307 256.532C297.637 265.841 295.938 275.323 294.228 284.86L257.055 278.927ZM256.636 281.487L293.768 287.414C292.368 295.233 290.96 303.072 289.561 310.87L252.748 305.31L256.636 281.487ZM236.312 302.825L221.465 300.581L224.724 276.395L240.308 278.882L236.312 302.825ZM242.975 279.307L253.971 281.061L250.078 304.904L238.981 303.229L242.975 279.307ZM168.402 239.029C179.075 240.47 190.4 241.999 202.192 243.584L196.517 269.265L163.811 264.046L168.402 239.029ZM155.173 207.485L170.542 209.216L167.983 225.898C162.814 225.2 157.699 224.507 152.659 223.824L155.173 207.485ZM172.875 194.017L170.937 206.652L155.57 204.921L157.628 191.563L172.875 194.017ZM156.693 188.786C156.691 188.786 156.691 188.786 156.689 188.786H156.686L139.253 185.979L144.863 160.577L177.945 160.983L173.268 191.455L156.693 188.786ZM152.488 207.184L149.98 223.461C143.711 222.612 137.548 221.775 131.527 220.957L135.004 205.215L152.488 207.184ZM135.566 202.67L138.693 188.515L154.96 191.133L152.883 204.62L135.566 202.67ZM595.956 451.952L592.738 461.633L577.548 467.431L580.697 457.961L595.956 451.952ZM581.769 454.741L583.402 449.83C583.669 449.05 591.955 424.812 603.536 390.642L617.959 385.759L597.028 448.73L581.769 454.741ZM811.873 380.737L870.244 358.445L875.554 373.26L817.555 396.932L811.873 380.737ZM778.022 439.824L770.655 418.887L815.925 400.412L823.411 421.739L778.022 439.824ZM795.433 489.33L778.885 442.287L824.272 424.203L841.248 472.575C826.305 478.025 810.9 483.659 795.433 489.33ZM857.778 519.68L812.238 537.104L797.158 494.229C812.617 488.562 828.022 482.931 842.967 477.478L857.778 519.68ZM867.402 547.107L821.972 564.78L813.103 539.563L858.638 522.139L867.402 547.107ZM845.495 476.556C866.673 468.832 886.859 461.493 904.85 454.967L919.576 496.035L860.292 518.718L845.495 476.556ZM375.629 51.2777L403.737 -5.27265L415.439 0.525838C415.441 0.527986 415.441 0.530139 415.444 0.530139C415.446 0.530139 415.448 0.530139 415.448 0.530139L447.809 16.5705L375.629 51.2777ZM447.416 19.6587L440.8 52.5469C405.062 69.0426 360.506 88.1497 323.692 99.3773L321.586 80.1607L447.416 19.6587ZM292.502 135.53C292.079 133.522 291.036 126.338 290.236 120.675C290.96 120.565 291.675 120.467 292.401 120.349C300.938 118.968 310.43 116.734 320.543 113.863C321.516 119.255 322.482 126.935 321.476 132.719C321.099 134.877 318.367 150.174 314.274 173.018L286.161 169.971C287.901 162.437 293.21 138.889 292.502 135.53ZM84.661 215.115L87.2923 180.241L112.77 184.34L110.468 218.09C102.78 217.042 95.3858 216.03 88.3794 215.072C87.9647 215.014 87.5457 214.997 87.1288 215.012L84.661 215.115ZM87.0907 227.979C93.1781 228.813 124.073 233.035 165.723 238.666L161.144 263.621L81.9557 250.982L83.6815 228.123L87.0907 227.979ZM897.046 631.585L851.506 648.744L839.464 614.503L884.963 597.154L897.046 631.585ZM907.152 662.113L897.335 665.381L888.668 637.527L897.866 634.061L907.152 662.113ZM887.48 596.194L914.873 585.749L927.756 619.773C927.786 619.85 927.862 619.891 927.907 619.96L899.565 630.638L887.48 596.194ZM601.952 65.4539L610.038 89.2063L591.234 94.8802L580.778 64.5047L601.084 57.976C601.622 59.7478 602.073 61.2275 602.418 62.3593L601.932 63.9055C601.772 64.4124 601.781 64.9514 601.952 65.4539ZM504.171 -9.7332L530.922 -21.9551L542.937 3.73218L515.205 16.2677L504.171 -9.7332ZM512.756 17.3737L492.537 26.5138L480.559 2.51881L501.757 -8.54774L512.756 17.3737ZM257.105 43.8127L275.806 43.1813L279.48 81.9839L258.577 83.7128L257.105 43.8127ZM279.635 84.5696L280.338 108.983C260.166 111.552 241.586 111.81 225.567 110.933L224.224 89.1548L279.635 84.5696ZM5.44561 89.0195L88.6775 90.0439L83.6076 157.24L7.22968 156.301L5.44561 89.0195ZM7.19608 257.03L7.8057 279.983L-5.37555 280.215L-8.80928 257.893L7.19608 257.03ZM-14.7488 219.288L-24.1019 158.505L4.59388 158.857L6.1718 218.412L-14.7488 219.288ZM6.51694 231.36L7.12884 254.44L-9.20378 255.32L-12.7675 232.169L6.51694 231.36ZM918.686 688.395L910.525 663.734L962.356 646.485L964.082 671.768L918.686 688.395ZM964.909 683.913L966.888 712.901L930.883 725.245L922.348 699.457L964.909 683.913ZM921.53 696.981L919.506 690.869L964.265 674.474L964.725 681.209L921.53 696.981ZM863.41 -71.107L864.058 -81.787L897.149 -82.1457C896.788 -78.6988 896.382 -74.8546 895.938 -70.6281L863.41 -71.107ZM804.472 -71.9747L807.2 -81.1707L861.348 -81.757L860.705 -71.1478L804.472 -71.9747ZM767.51 -72.518L768.942 -80.7562L804.382 -81.1406L801.675 -72.0155L767.51 -72.518ZM861.962 -68.5385C861.969 -68.5385 861.976 -68.5385 861.982 -68.5385H861.985L895.667 -68.0424C894.316 -55.2278 892.637 -39.3442 890.75 -21.5299L758.677 -21.7382L767.06 -69.9323L861.962 -68.5385ZM154.293 2.81303L173.557 -16.9384L185.046 -11.7197L185.499 33.5859L154.293 2.81303ZM185.537 37.3377L185.703 53.7152L141.999 15.4237L152.446 4.70934L185.537 37.3377ZM-72.1359 88.0638L2.7403 88.9851L4.52441 156.267L-59.2527 155.483C-59.6001 153.376 -59.8579 151.955 -60.0058 151.383C-60.8037 148.329 -66.0462 120.649 -72.1359 88.0638ZM-134.319 90.1985L-77.6294 88.0659C-71.4478 121.145 -66.0888 149.436 -65.2528 152.642C-65.0309 153.49 -64.5333 156.456 -63.8251 161.086L-126.26 167.415L-134.319 90.1985ZM-212.127 93.13L-137.025 90.3016L-128.949 167.686L-193.713 174.251C-198.691 150.63 -205.699 118.519 -212.127 93.13ZM-217.63 93.3361C-209.55 125.219 -200.329 168.798 -195.568 191.844C-211.334 176.005 -222.491 164.829 -224.32 163.075C-228.653 158.924 -242.083 153.164 -271.7 141.013C-278.894 138.062 -286.179 135.07 -293.051 132.175L-294.756 96.2397L-217.63 93.3361ZM-295.946 71.1408C-295.955 70.9732 -295.996 70.81 -296.072 70.6576L-315.527 30.2506C-299.813 29.4474 -273.948 28.4875 -242.901 27.4717C-236.652 41.2055 -231.533 52.0938 -228.958 56.7841C-226.279 61.6591 -222.458 74.506 -218.284 90.7697L-294.88 93.654L-295.946 71.1408ZM-321.188 97.2362L-297.457 96.3427L-295.812 131.005C-306.111 126.63 -315.294 122.513 -321.563 119.118C-329.06 115.057 -336.445 109.194 -343.214 102.259L-321.188 97.2362ZM-325.4 30.824C-323.479 30.6887 -321.117 30.5492 -318.429 30.4031L-298.636 71.5123L-297.58 93.7549L-321.426 94.6526C-321.513 94.6547 -321.601 94.6676 -321.686 94.687L-345.321 100.08C-357.31 87.1489 -367.066 70.8702 -371.459 55.2336C-372.362 52.0186 -373.654 46.0097 -375.216 37.982C-353.49 34.2065 -335.728 31.5435 -325.4 30.824ZM-334.834 -4.92046L-324.371 17.7731C-325.07 17.8182 -325.763 17.8612 -326.382 17.9063C-337.162 18.6579 -355.427 21.3832 -377.621 25.2317C-379.095 17.1954 -380.723 8.02523 -382.433 -1.84295L-334.834 -4.92046ZM-335.995 -7.44173L-382.879 -4.41148C-385.075 -17.1338 -387.404 -30.9385 -389.737 -44.973L-359.134 -57.6331L-335.995 -7.44173ZM-333.126 -7.62641L-356.653 -58.6596L-313.276 -76.6027L-286.567 -10.6352L-333.126 -7.62641ZM-248.672 14.7042C-281.046 15.7802 -307.319 16.7853 -321.495 17.6013L-331.965 -5.10514L-259.583 -9.7826C-255.878 -1.4113 -252.18 6.89344 -248.672 14.7042ZM-236.145 -63.7107L-222.267 -35.1499L-258.263 -20.1018C-262.551 -29.8153 -266.755 -39.3979 -270.579 -48.1407L-236.145 -63.7107ZM-249.112 -90.3946L-237.286 -66.0581L-271.624 -50.531C-276.212 -61.022 -280.185 -70.1557 -282.994 -76.6178L-249.112 -90.3946ZM-250.255 -92.7462L-284.032 -79.0102C-286.064 -83.6962 -287.279 -86.501 -287.358 -86.6814L-287.665 -87.4051L-255.522 -103.589L-250.255 -92.7462ZM-219.916 -124.432L-254.264 -107.141L-278.287 -156.573L-239.664 -170.674L-219.916 -124.432ZM-217.511 -125.643L-227.507 -149.05L-193.818 -162.88L-184.906 -142.055L-217.511 -125.643ZM-175.244 -119.473L-208.922 -105.531L-216.487 -123.244L-183.882 -139.66L-175.244 -119.473ZM-172.763 -120.499L-181.477 -140.872L-175.497 -143.882L-166.086 -123.266L-172.763 -120.499ZM-156.625 -102.531L-163.703 -99.3307L-171.736 -118.105L-165.006 -120.89L-156.625 -102.531ZM-154.18 -103.637L-162.522 -121.919L-146.371 -128.604L-138.222 -110.853L-154.18 -103.637ZM-137.135 -108.482L-126.558 -85.4444L-142.877 -78.8727L-153.095 -101.264L-137.135 -108.482ZM-133.331 -113.065L-137.61 -122.387L-92.8772 -140.29L-89.0849 -133.069L-133.331 -113.065ZM-127.407 -100.162L-132.242 -110.694L-87.8701 -130.759L-81.953 -119.494L-127.407 -100.162ZM-119.641 -83.2452L-126.318 -97.7909L-80.7359 -117.177L-73.483 -103.366L-119.641 -83.2452ZM-66.611 -90.2829L-113.887 -70.7119L-118.552 -80.8743L-72.2682 -101.051L-66.611 -90.2829ZM-64.1388 -91.3073L-69.8184 -102.118L-33.4617 -117.965L-26.2357 -106.998L-64.1388 -91.3073ZM-59.1407 -81.7978L-62.9218 -88.99L-24.7765 -104.781L-20.8453 -98.8131L-59.1407 -81.7978ZM-35.6336 -74.8073C-35.8353 -74.8138 -36.037 -74.788 -36.232 -74.7021C-36.4517 -74.6076 -36.613 -74.4552 -36.7453 -74.2812L-51.5112 -67.2758L-57.9259 -79.4827L-19.3906 -96.6054L-17.9158 -94.3655C-17.9136 -94.3655 -17.9158 -94.3655 -17.9136 -94.3655L-12.3192 -85.8696L-35.6336 -74.8073ZM-20.7668 -78.9737L-10.8691 -83.6683L3.47547 -61.8939L-8.15033 -56.7418L-20.7668 -78.9737ZM-21.9413 -47.7756L-9.31583 -53.3701L3.42614 -30.917L-12.0816 -27.0449L-21.9413 -47.7756ZM-37.6149 -40.8282L-24.3933 -46.6889L-14.7376 -26.3835L-28.2528 -23.0075L-37.6149 -40.8282ZM-43.5298 8.80694L-44.6729 -19.872L-29.8487 -20.1791L-17.1381 8.11973C-25.4915 8.33663 -34.3246 8.56641 -43.5298 8.80694ZM-84.257 22.8458C-52.6206 21.9932 -22.988 21.2222 0.927063 20.6123L2.67082 86.3994L-72.6201 85.4695C-76.502 64.683 -80.6821 42.1462 -84.257 22.8458ZM-141.185 24.4135C-123.893 23.926 -106.556 23.4471 -89.7237 22.9918C-86.1689 42.1913 -81.9978 64.6722 -78.1091 85.4931L-134.588 87.6192L-141.185 24.4135ZM-143.894 24.4887L-137.294 87.7223L-212.782 90.5636C-217.182 73.3936 -221.265 59.664 -224.172 54.3724C-226.559 50.0214 -231.268 40.0372 -237.085 27.2827C-208.694 26.3657 -176.423 25.4078 -143.894 24.4887ZM-172.238 -15.4286L-150.063 11.7083C-182.681 12.6361 -214.824 13.5961 -242.863 14.5131C-246.377 6.69801 -250.109 -1.67973 -253.863 -10.1541L-172.238 -15.4286ZM-212.676 -15.4114L-254.982 -12.6776C-255.726 -14.357 -256.468 -16.0385 -257.21 -17.7179L-221.126 -32.8026L-212.676 -15.4114ZM-200.809 -79.691L-183.008 -38.0084L-214.855 -26.0334L-233.7 -64.8168L-200.809 -79.691ZM-206.614 -93.2852L-201.833 -82.0877L-234.841 -67.1641L-240.352 -78.5077L-206.614 -93.2852ZM-207.638 -95.6841L-241.493 -80.8571L-253.126 -104.796L-218.892 -122.033L-207.638 -95.6841ZM-199.385 -83.1958L-207.898 -103.134L-174.22 -117.076L-166.151 -98.2225L-199.385 -83.1958ZM-159.113 -81.772L-192.697 -67.5335L-198.359 -80.797L-165.124 -95.8237L-159.113 -81.772ZM-153.174 -74.7257L-162.677 -96.9318L-155.54 -100.158L-145.369 -77.8677L-153.174 -74.7257ZM-137.619 -60.8867L-145.804 -57.4999L-152.149 -72.329L-144.284 -75.4946L-137.619 -60.8867ZM-135.135 -61.9154L-141.792 -76.4996L-125.468 -83.0713L-118.852 -68.6566L-135.135 -61.9154ZM-106.406 -41.5433L-134.528 -31.149L-144.778 -55.1011L-135.299 -59.0247C-135.297 -59.0269 -135.294 -59.0247 -135.292 -59.0269C-135.29 -59.0269 -135.29 -59.029 -135.288 -59.0312L-117.763 -66.2857L-106.406 -41.5433ZM-88.6478 -49.6548L-101.435 -43.5878L-112.8 -68.341L-99.5788 -73.813L-88.6478 -49.6548ZM-73.3664 -56.905L-77.2193 -55.0774C-77.2215 -55.0774 -77.226 -55.0774 -77.2282 -55.0753C-77.235 -55.0731 -77.2372 -55.0688 -77.2439 -55.0667L-86.2227 -50.8059L-97.0977 -74.8396L-83.495 -80.4706L-73.3664 -56.905ZM-70.939 -58.0583L-81.0138 -81.4992L-65.394 -87.9656L-60.9763 -79.5557C-60.9763 -79.5514 -60.9763 -79.5514 -60.9741 -79.5514L-53.9251 -66.1289L-70.939 -58.0583ZM-47.2033 -53.3379L-70.2286 -42.6085C-70.2353 -42.6042 -70.2398 -42.5999 -70.2465 -42.5956L-74.96 -53.2627L-52.7103 -63.8181L-47.2033 -53.3379ZM-61.2677 -22.1227C-61.2856 -22.2214 -61.2879 -22.3202 -61.3305 -22.4169L-64.7395 -30.131L-40.0916 -39.793L-31.1352 -22.7412L-61.2677 -22.1227ZM-46.6833 -2.46361L-46.2328 8.87781C-59.1182 9.21713 -72.6918 9.57579 -86.6418 9.95377C-87.4644 5.49966 -88.2354 1.33548 -88.937 -2.46361H-46.6833ZM-47.3759 -19.8183L-46.7865 -5.0536H-89.4144C-90.4611 -10.7168 -91.3329 -15.4372 -91.9717 -18.9013L-47.3759 -19.8183ZM-69.2065 -40.244C-69.1549 -40.2612 -69.0989 -40.2548 -69.0474 -40.2784L-45.9885 -51.0228L-41.3086 -42.1124L-65.7929 -32.5149L-69.2065 -40.244ZM-92.4469 -21.4827C-92.8862 -23.8622 -93.1417 -25.2538 -93.1686 -25.3977C-93.2067 -25.6017 -93.2694 -25.8015 -93.3569 -25.9926L-100.348 -41.219L-77.3874 -52.1116L-64.1119 -22.0647L-92.4469 -21.4827ZM-130.895 -18.1002L-97.4428 -18.7874C-96.3266 -12.7463 -94.4372 -2.49796 -92.1084 10.102C-109.981 10.5852 -128.396 11.0941 -146.705 11.6139L-168.977 -15.6391L-130.895 -18.1002ZM-133.501 -28.7523L-105.317 -39.1745L-98.438 -24.1908C-98.3371 -23.6474 -98.1578 -22.6789 -97.918 -21.3689L-130.061 -20.7095L-133.501 -28.7523ZM-174.713 -25.4256L-140.138 -37.4264L-132.923 -20.5657L-170.99 -18.1045L-172.238 -19.6315L-174.713 -25.4256ZM-191.673 -65.1367L-158.087 -79.3753L-155.155 -72.5245V-72.5223L-141.162 -39.8252L-175.739 -27.8267L-191.673 -65.1367ZM-174.67 -18.4846C-174.623 -18.3751 -174.56 -18.2699 -174.484 -18.1775L-174.253 -17.8941L-209.783 -15.5983L-213.712 -23.6797L-181.984 -35.6095L-174.67 -18.4846ZM-33.8315 -72.7757L-23.1919 -77.8226L-10.6091 -55.6508L-23.0619 -50.1315L-33.8315 -72.7757ZM-25.5139 -49.0448L-38.8319 -43.1411L-44.1618 -53.2863C-44.1641 -53.2928 -44.1641 -53.3014 -44.1663 -53.3121C-44.1708 -53.3207 -44.182 -53.325 -44.1865 -53.3357L-50.2964 -64.9649L-36.2544 -71.6268L-25.5139 -49.0448ZM298.076 548.851L253.888 541.79L270.719 467.419C286.798 473.423 306.974 477.705 329.818 482.535C351.998 487.228 376.51 492.416 401.843 500.103L381.214 595.752L246.284 575.393L253.315 544.324L297.63 551.407C297.707 551.417 297.78 551.424 297.854 551.424C298.502 551.424 299.076 550.977 299.186 550.343C299.309 549.637 298.811 548.971 298.076 548.851ZM555.697 596.313C554.554 597.537 553.461 598.763 552.416 599.994L554.2 594.631C554.698 595.192 555.207 595.75 555.697 596.313ZM554.814 575.713C551.591 572.367 548.27 569.062 544.84 565.798L556.818 529.782C559.804 533.951 562.814 538.227 565.826 542.588L554.814 575.713ZM1000.65 592.892L984.009 545.702L1001.42 539.159L1018.79 586.994L1000.65 592.892ZM1037.84 644.752L1021.1 650.885L1002.38 597.799L1020.48 591.912L1037.84 644.752ZM1030.33 613.246L1023.05 591.079L1050.54 582.136L1057.92 603.741L1030.33 613.246ZM1040.37 643.826L1031.14 615.72L1058.76 606.204L1068.14 633.657L1040.37 643.826ZM1043.23 652.537L1041.18 646.302L1068.98 636.123L1071.11 642.359L1043.23 652.537ZM1044.05 655.013L1071.95 644.822L1081.75 673.519L1053.32 683.264L1044.05 655.013ZM1025.01 661.967L1041.52 655.938L1050.78 684.136L1034.76 689.628L1025.01 661.967ZM1021.96 653.34L1038.66 647.228L1040.7 653.462L1024.14 659.51L1021.96 653.34ZM1022.48 662.888L1032.22 690.502L1023.99 693.321H1023.99L1013.8 696.813L1004.3 669.528L1022.48 662.888ZM657.118 -94.1722L763.299 -79.8284L753.421 -23.0418L640.619 -37.5273L639.573 -38.1866L657.118 -94.1722ZM663.295 -151.232L690.854 -148.828L689.796 -94.9904L658.133 -99.2663L663.295 -151.232ZM658.164 -154.279L622.438 -157.391L625.638 -196.277L662.078 -193.677L658.164 -154.279ZM616.787 -121.737L566.223 -150.282L567.13 -159.609L619.531 -155.043L616.787 -121.737ZM622.225 -154.809L657.909 -151.7L652.906 -101.347L619.378 -120.274L622.225 -154.809ZM273.076 -163.988L356.719 -129.564L339.938 -82.893L253.927 -119.368C260.991 -135.977 267.872 -151.953 273.076 -163.988ZM252.125 -175.433L260.184 -192.485L279.18 -184.796C278.034 -182.17 275.311 -175.92 271.624 -167.405L252.125 -175.433ZM270.589 -165.013C267.457 -157.777 263.726 -149.129 259.711 -139.772C256.928 -140.91 249.643 -143.893 239.23 -148.152L251.008 -173.073L270.589 -165.013ZM-348.035 -82.7126L-342.331 -67.4025L-357.745 -61.0284L-367.328 -81.8149L-369.577 -100.074C-361.685 -98.3858 -353.939 -96.73 -346.569 -95.1558L-348.102 -83.3075C-348.129 -83.1056 -348.105 -82.9038 -348.035 -82.7126ZM-502.165 -94.067C-506.585 -102.713 -515.416 -114.931 -526.795 -129.025C-506.349 -126.936 -482.8 -124.419 -480.384 -123.841C-479.794 -123.699 -475.648 -122.8 -468.986 -121.365L-463.168 -90.1734L-497.465 -83.8487C-499.074 -87.6521 -500.647 -91.0947 -502.165 -94.067ZM-494.479 -145.115L-507.271 -164.486L-492.041 -172.072L-481.502 -149.462L-494.479 -145.115ZM-487.731 -130.05C-496.389 -131.07 -509.758 -132.481 -520.642 -133.604L-495.613 -141.988L-487.731 -130.05ZM-492.996 -142.869L-480.395 -147.089L-471.093 -127.129C-475.748 -128.132 -478.606 -128.755 -479.072 -128.867C-479.751 -129.03 -481.607 -129.294 -484.252 -129.625L-492.996 -142.869ZM-530.93 -152.707L-509.678 -163.288L-497.099 -144.237L-521.304 -136.128L-530.93 -152.707ZM910.747 -82.2917L1046.78 -83.7671L1046.46 -68.414L909.503 -70.4284C909.965 -74.8138 910.379 -78.7868 910.747 -82.2917ZM911.426 -88.7817C912.439 -98.4738 913.15 -112.79 913.638 -129.32L941.018 -126.59L939.31 -85.5131C939.308 -85.3993 939.342 -85.2962 939.367 -85.1888L911.018 -84.8838C911.164 -86.2626 911.301 -87.5769 911.426 -88.7817ZM975.093 -123.195L974.36 -85.5689L941.964 -85.2189C941.978 -85.2833 942.011 -85.3413 942.014 -85.41L943.712 -126.322L975.093 -123.195ZM1010.81 -119.634V-85.9641L977.064 -85.599L977.792 -122.926L1010.81 -119.634ZM914.152 -151.416L1048.13 -147.274L1047.52 -118.577L913.715 -131.916C913.889 -138.168 914.033 -144.707 914.152 -151.416ZM914.452 -173.307L995.828 -170.006C995.83 -170.006 995.83 -170.006 995.83 -170.006H995.841L1043.64 -168.066L1135.19 -161.398C1135.17 -161.31 1135.13 -161.229 1135.13 -161.136V-147.177L1050.67 -149.788C1050.44 -150.166 1050.04 -150.437 1049.55 -150.448C1049.02 -150.43 1048.64 -150.199 1048.41 -149.857L914.194 -154.006C914.302 -160.344 914.385 -166.808 914.452 -173.307ZM914.631 -229.46L945.107 -226.498V-174.655L914.474 -175.899C914.647 -194.415 914.669 -213.061 914.631 -229.46ZM947.81 -226.234L965.173 -224.548L964.425 -173.871L947.81 -174.546V-226.234ZM967.874 -224.286L996.234 -221.531L994.568 -172.649L967.128 -173.762L967.874 -224.286ZM998.93 -221.269L1045.62 -216.733L1042.46 -170.706L997.271 -172.538L998.93 -221.269ZM1135.13 -109.845L1099.44 -113.404L1100.46 -145.656L1135.13 -144.585V-109.845ZM1096.74 -113.672L1050.22 -118.309L1050.83 -147.19L1097.76 -145.74L1096.74 -113.672ZM1095.89 -86.8833L1049.54 -86.3829L1050.16 -115.713L1096.66 -111.076L1095.89 -86.8833ZM1095.21 -65.4847L1049.16 -68.3109L1049.49 -83.7972L1095.81 -84.2997L1095.21 -65.4847ZM1046.84 -86.3528L1013.51 -85.992V-119.366L1047.47 -115.981L1046.84 -86.3528ZM-524.603 -241.924L-514.694 -220.672L-535.614 -207.412L-536 -207.997V-203.15L-524.065 -185.073L-536 -178.072V-175.035L-522.619 -182.885L-511.13 -165.485L-532.246 -154.97L-536 -161.439V-156.117L-534.644 -153.779L-536 -153.102V-150.183L-533.328 -151.513L-523.895 -135.26L-526.914 -134.248C-528.55 -134.414 -530.065 -134.568 -531.432 -134.708C-532.916 -136.505 -534.449 -138.337 -536 -140.184V-119.312C-535.935 -119.232 -535.866 -119.147 -535.801 -119.067L-536 -118.912V-115.582L-534.16 -117.008C-524.991 -105.438 -517.955 -95.5123 -514.304 -88.3694C-511.309 -82.5108 -508.075 -74.6978 -504.7 -65.5684H-513.445L-522.648 -91.5328C-522.695 -91.6659 -522.767 -91.7905 -522.855 -91.9L-536 -108.411V-104.141L-525.138 -90.4998L-515.691 -63.8568C-515.505 -63.3306 -514.992 -62.9784 -514.414 -62.9784H-503.749C-502.653 -59.9525 -501.542 -56.7869 -500.419 -53.514L-536 -49.7922V-47.185L-499.563 -50.997C-497.375 -44.5328 -495.152 -37.6648 -492.915 -30.5369L-536 -24.3819V-21.7619L-492.135 -28.0285C-485.014 -5.15454 -477.808 20.1355 -471.297 43.0804C-493.89 47.6375 -516.173 52.2527 -536 56.419V69.7019C-515.263 65.3423 -491.644 60.4479 -467.736 55.6287C-457.607 91.2315 -451.484 111.928 -447.669 118.143C-438.213 133.545 -286.936 210.298 -237.331 235.176L-174.226 362.485C-176.625 362.365 -179.021 362.242 -181.428 362.154C-182.625 362.114 -183.804 362.371 -184.857 362.908C-254.67 398.457 -361.573 452.314 -369.924 454.984C-375.115 456.363 -400.034 446.789 -423.256 434.485C-426.522 432.756 -430.633 433.89 -432.441 437.017C-433.098 438.158 -433.351 439.403 -433.26 440.612L-536 492.326V498.176L-430.736 445.195C-430.442 445.421 -430.14 445.638 -429.799 445.818C-414.952 453.687 -378.974 471.54 -365.668 467.275C-353.845 463.501 -204.224 387.431 -180.13 375.167C-85.1894 378.972 2.15981 409.189 13.6511 413.301L66.1185 462.659L107.948 600.614L86.5191 697.687C76.8634 721.38 61.9474 757.582 59.8719 761.557C58.3052 764.561 54.0085 779.47 43.8441 815.343C42.7189 819.312 41.5714 823.356 40.4261 827.398H54.4344C55.2502 824.513 56.0706 821.623 56.8887 818.736C63.3101 796.071 70.59 770.383 71.9617 767.349C74.853 761.81 94.7627 713.06 98.8106 703.132L130.252 712.414L127.11 782.955C127.081 783.567 127.504 784.113 128.125 784.265L182.181 797.555L175.428 827.398H189.26L209.131 739.587L272.254 756.018L253.108 827.398H255.899L260.099 811.735L322.666 827.32L322.646 827.398H328.22L342.141 774.208L449.091 802.045L439.854 827.398H442.716L451.704 802.728L478.322 809.654L472.584 827.398H478.246L483.542 811.014L546.483 827.398H598.043L575.728 821.588L613.179 727.874L637.091 732.886C645.848 751.491 652.774 765.12 660.386 772.705C676.857 789.119 729.136 804.249 768.9 812.216C794.897 817.422 819.946 820.686 842.431 821.981L839.894 827.398H845.822L848.214 822.291C871.754 823.307 892.175 822.044 907.403 818.395C928.339 813.38 951.488 809.656 973.305 806.907L974.703 827.398H988.248L986.742 805.314C1021.33 801.453 1050.34 800.04 1058.08 799.709C1063.39 802.877 1080.43 813.367 1097.83 827.398H1118.22C1093.38 804.917 1065.03 788.574 1063.32 787.596C1062.2 786.956 1060.91 786.626 1059.61 786.686C1059.08 786.705 1026.36 787.888 985.859 792.381L984.079 766.307L1070.79 764.699L1145 819.041V802.743L1081.36 756.141L1108.45 747.563C1108.48 747.555 1108.5 747.535 1108.52 747.527C1108.55 747.518 1108.57 747.522 1108.59 747.512L1131.76 737.401L1145 775.551V767.342L1134.23 736.323L1145 731.624V728.78L1133.38 733.851L1110.03 666.571L1125.15 661.389L1145 714.297V706.641L1127.7 660.553L1145 655.157V652.431L1125.54 658.503C1125.53 658.505 1125.53 658.509 1125.52 658.511C1125.52 658.513 1125.51 658.511 1125.5 658.515L1109.18 664.112L1098.64 633.747C1098.64 633.745 1098.64 633.743 1098.64 633.741C1098.64 633.737 1098.64 633.73 1098.64 633.726L1076.65 573.647L1116.41 560.716L1145 643.117V634.909L1142.6 628.005C1142.7 627.987 1142.8 627.985 1142.9 627.949L1145 627.126V624.33L1141.88 625.552C1141.84 625.567 1141.81 625.597 1141.78 625.617L1135.25 606.816L1145 601.271V598.269L1134.38 604.302L1118.97 559.885L1141.24 552.639L1145 562.187V554.845L1143.81 551.806L1145 551.417V545.947L1141.9 546.957L1121.14 494.18L1145 485.211V482.43L1040.43 521.72C1040.42 521.628 1040.42 521.538 1040.38 521.448L1034.38 505.938L1127.32 450.511L1145 476.099V463.806L1143.71 464.854L1131.68 447.435L1145 436.152V432.72L1130.18 445.268L1113.5 421.14L1137.87 401.692L1145 411.558V407.011L1139.95 400.029L1145 396V392.631L1138.41 397.892L1122.76 376.247L1145 358.564V355.2L1121.21 374.11L1102.21 347.824C1112.89 340.406 1123.25 333.108 1132.84 326.238L1145 342.392V337.964L1135.01 324.685C1138.47 322.201 1141.78 319.793 1145 317.444V310.994C1140.84 314.065 1136.47 317.248 1131.89 320.545L1115.38 298.609L1145 278.452V275.274L1113.8 296.511L1100.33 278.611L1100.48 278.54L1145 247.641V244.456L1099.07 276.337L1098.74 276.498L1077.03 247.641L1131.81 200.814C1136.13 206.119 1140.57 211.531 1145 216.9V212.734C1141.2 208.116 1137.44 203.538 1133.83 199.092L1145 189.542V186.071L1132.16 197.043C1128.8 192.909 1125.57 188.897 1122.5 185.06C1122.49 185.045 1122.49 185.03 1122.48 185.019C1122.47 185.008 1122.46 185.004 1122.45 184.997C1117.26 178.492 1112.55 172.498 1108.58 167.301L1126.08 152.681L1145 175.286V171.145L1128.12 150.977L1145 136.872V129.998L1139.9 134.261C1134.37 117.494 1122.66 81.8701 1117.63 66.1412C1124.03 64.0215 1129.68 62.1488 1134.55 60.5381C1136.43 60.7507 1140.02 61.1545 1145 61.7171V48.6748C1139.34 48.037 1135.67 47.6225 1134.59 47.5022C1134.52 47.4936 1134.45 47.5044 1134.37 47.4979C1134.28 47.4893 1134.2 47.4657 1134.11 47.4636L1075.16 44.9316L1064.64 11.8136L1145 20.2472V17.64L1063.78 9.11835L1056.33 -14.3312L1145 -10.545V-13.1371L950.706 -21.4354C950.697 -21.4354 950.688 -21.4311 950.679 -21.4311C950.667 -21.4311 950.656 -21.4376 950.645 -21.4376L904.335 -21.5106C906.222 -39.3163 907.894 -55.1462 909.232 -67.8427L1047.69 -65.8068L1096.46 -62.8173C1096.46 -62.8173 1096.47 -62.8131 1096.48 -62.8131H1096.52C1096.52 -62.8131 1096.52 -62.8131 1096.52 -62.8131L1145 -59.8408V-62.4286L1097.91 -65.3193L1098.51 -84.3298L1145 -84.8323V-87.4159L1098.6 -86.9133L1099.36 -110.807L1145 -106.257V-108.862L1137.84 -109.577V-161.136C1137.84 -161.16 1137.82 -161.181 1137.82 -161.207L1145 -160.683V-163.28L1045.16 -170.553L1048.4 -217.811C1048.4 -217.826 1048.4 -217.839 1048.4 -217.854C1048.4 -217.869 1048.41 -217.88 1048.41 -217.895V-246.398H1045.7V-219.327L999.017 -223.863L999.786 -246.398H997.079L996.321 -224.125L967.91 -226.887L968.199 -246.398H965.494L965.211 -227.149L914.624 -232.065C914.609 -237.099 914.589 -241.896 914.564 -246.398H901.033C901.053 -242.285 901.073 -237.945 901.087 -233.379L839.813 -239.332L840.907 -246.398H838.173L836.924 -238.321C836.924 -238.318 836.922 -238.314 836.922 -238.312C836.92 -238.31 836.922 -238.308 836.922 -238.306L833.945 -219.078C820.128 -220 805.362 -220.977 790.547 -221.95L794.285 -246.398H788.821L785.136 -222.306C740.587 -225.229 696.65 -228.038 678.065 -229C676.005 -229.107 673.663 -229.284 671.072 -229.518L672.749 -246.398H667.316L665.691 -230.055C640.864 -232.726 599.206 -239.549 560.104 -246.398H530.343C543.603 -244.003 557.836 -241.475 572.142 -239.012L569.771 -214.628L498.048 -219.793L506.184 -246.398H503.367L495.493 -220.65L453.842 -246.398H448.855L494.7 -218.058L487.554 -194.694L423.353 -230.939C423.255 -230.993 423.156 -231.042 423.058 -231.083L386.176 -246.398H372.583L420.751 -226.395L531.892 -163.651L512.043 -131.953L348.872 -203.244L340.803 -246.398H335.309L342.972 -205.409L216.436 -246.271C216.458 -246.314 216.478 -246.355 216.496 -246.398H207.585L210.169 -245.562C201.959 -228.251 189.493 -201.882 176.383 -173.876C108.816 -201.537 24.739 -235.973 20.6105 -237.754C18.1719 -238.804 14.3033 -242.326 10.3676 -246.398H6.70074C11.2641 -241.533 16.2511 -236.794 19.5032 -235.391C21.8656 -234.371 50.27 -222.716 86.7768 -207.756C84.4414 -202.958 75.7786 -185.211 73.9901 -182.382C72.6004 -180.187 72.7237 -171.812 73.4947 -155.026C73.7211 -150.141 73.9139 -145.918 73.7995 -144.694C73.6852 -143.479 72.5063 -135.415 70.9351 -124.883L33.0431 -123.102L24.4432 -160.183C24.3849 -160.425 24.2593 -160.647 24.0733 -160.821L-65.9073 -246.398H-69.7444L-44.442 -222.334L-80.8233 -194.701L-84.3781 -200.098L-123.01 -246.398H-126.468L-115.01 -232.668L-140.66 -208.216L-152.68 -231.062C-152.68 -231.064 -152.68 -231.064 -152.68 -231.066C-152.683 -231.066 -152.683 -231.068 -152.685 -231.068L-160.747 -246.398H-163.771L-155.706 -231.083L-181.849 -218.752L-194.542 -246.398H-200.448L-199.343 -243.992L-242.412 -229.565L-249.224 -246.398H-252.122L-252.086 -246.305L-282.593 -236.278L-287.34 -246.398H-290.303L-276.983 -217.983L-303.767 -209.008L-321.933 -246.398H-324.916L-317.123 -230.359L-343.907 -219.437L-355.391 -246.398H-361.232L-340.116 -196.829L-409.504 -173.584L-378.286 -246.398H-381.211L-404.649 -191.729L-432.636 -246.398H-435.647L-406.021 -188.529L-412.052 -174.456L-449.957 -246.398H-465.1L-447.644 -213.269L-501.206 -198.086L-522.707 -244.209C-522.707 -244.211 -522.707 -244.214 -522.707 -244.216C-522.709 -244.216 -522.709 -244.218 -522.711 -244.218L-523.726 -246.398H-526.687L-525.706 -244.291L-536 -239.622V-236.755L-524.603 -241.924Z" fill="#CAD1E1"/>
<path fill-rule="evenodd" clip-rule="evenodd" d="M291 284.748C291 277.327 297.26 271.325 305 271.325C312.74 271.325 319 277.327 319 284.748C319 294.814 305 309.675 305 309.675C305 309.675 291 294.814 291 284.748ZM300 284.748C300 287.394 302.24 289.541 305 289.541C307.76 289.541 310 287.394 310 284.748C310 282.101 307.76 279.954 305 279.954C302.24 279.954 300 282.101 300 284.748Z" fill="#141416"/>
</g>
<defs>
<clipPath id="clip0_64_180">
<rect width="610" height="581" rx="20" fill="white"/>
</clipPath>
</defs>
</svg>
