<svg width="21" height="20" viewBox="0 0 21 20" fill="none" xmlns="http://www.w3.org/2000/svg">
<g clip-path="url(#clip0_65_242)">
<path fill-rule="evenodd" clip-rule="evenodd" d="M10.5 10.8343C7.27834 10.8343 4.66667 13.446 4.66667 16.6677V18.3343C4.66667 18.7946 4.29357 19.1677 3.83333 19.1677C3.3731 19.1677 3 18.7946 3 18.3343V16.6677C3 12.5255 6.35786 9.16766 10.5 9.16766C14.6421 9.16766 18 12.5255 18 16.6677V18.3343C18 18.7946 17.6269 19.1677 17.1667 19.1677C16.7064 19.1677 16.3333 18.7946 16.3333 18.3343V16.6677C16.3333 13.446 13.7217 10.8343 10.5 10.8343Z" fill="#777E91"/>
<path fill-rule="evenodd" clip-rule="evenodd" d="M10.5 9.16762C12.3409 9.16762 13.8333 7.67524 13.8333 5.83429C13.8333 3.99334 12.3409 2.50096 10.5 2.50096C8.65905 2.50096 7.16667 3.99334 7.16667 5.83429C7.16667 7.67524 8.65905 9.16762 10.5 9.16762ZM10.5 10.8343C13.2614 10.8343 15.5 8.59571 15.5 5.83429C15.5 3.07287 13.2614 0.83429 10.5 0.83429C7.73858 0.83429 5.5 3.07287 5.5 5.83429C5.5 8.59571 7.73858 10.8343 10.5 10.8343Z" fill="#777E91"/>
</g>
<defs>
<clipPath id="clip0_65_242">
<rect width="20" height="20" fill="white" transform="translate(0.5 0.000976562)"/>
</clipPath>
</defs>
</svg>
