<svg width="21" height="20" viewBox="0 0 21 20" fill="none" xmlns="http://www.w3.org/2000/svg">
<path fill-rule="evenodd" clip-rule="evenodd" d="M9.69107 12.5015C10.151 12.4842 10.5379 12.8429 10.5552 13.3028C10.5944 14.3397 10.6494 15.0964 10.7034 15.639C10.7566 16.1733 11.0792 16.4948 11.5289 16.5498C12.0591 16.6146 12.807 16.6676 13.8334 16.6676C14.8598 16.6676 15.6078 16.6146 16.138 16.5498C16.5874 16.4948 16.9101 16.1732 16.9634 15.6387C17.0637 14.6316 17.1667 12.8916 17.1667 10.001C17.1667 7.11027 17.0637 5.3703 16.9634 4.36319C16.9101 3.82873 16.5874 3.50709 16.138 3.45215C15.6078 3.38734 14.8598 3.33429 13.8334 3.33429C12.807 3.33429 12.0591 3.38733 11.5289 3.45215C11.0792 3.50711 10.7566 3.8286 10.7034 4.36293C10.6494 4.9055 10.5944 5.66224 10.5552 6.69906C10.5379 7.15897 10.151 7.51772 9.69107 7.50036C9.23116 7.483 8.8724 7.0961 8.88976 6.63619C8.92994 5.57199 8.9869 4.78048 9.04495 4.19772C9.167 2.97258 10.0212 1.95737 11.3266 1.79779C11.9343 1.72351 12.7507 1.66762 13.8334 1.66762C14.9161 1.66762 15.7325 1.72351 16.3402 1.7978C17.6458 1.9574 18.4998 2.97308 18.6218 4.19798C18.7293 5.27652 18.8334 7.07468 18.8334 10.001C18.8334 12.9272 18.7293 14.7254 18.6218 15.8039C18.4998 17.0288 17.6458 18.0445 16.3402 18.2041C15.7325 18.2784 14.9161 18.3343 13.8334 18.3343C12.7507 18.3343 11.9343 18.2784 11.3266 18.2041C10.0212 18.0445 9.167 17.0293 9.04495 15.8042C8.9869 15.2214 8.92994 14.4299 8.88976 13.3657C8.8724 12.9058 9.23116 12.5189 9.69107 12.5015Z" fill="#777E91"/>
<path fill-rule="evenodd" clip-rule="evenodd" d="M6.50576 12.3284C6.8312 12.6538 6.8312 13.1815 6.50576 13.5069C6.18032 13.8323 5.65269 13.8323 5.32725 13.5069L2.41058 10.5902C2.08514 10.2648 2.08514 9.73716 2.41058 9.41172L5.32725 6.49505C5.65269 6.16962 6.18032 6.16962 6.50576 6.49505C6.8312 6.82049 6.8312 7.34813 6.50576 7.67357L5.01168 9.16764H12.9998C13.4601 9.16764 13.8332 9.54074 13.8332 10.001C13.8332 10.4612 13.4601 10.8343 12.9998 10.8343L5.01168 10.8343L6.50576 12.3284Z" fill="#777E91"/>
</svg>
