<svg width="14" height="14" viewBox="0 0 14 14" fill="none" xmlns="http://www.w3.org/2000/svg">
<path d="M6.38784 1.08513C6.61944 0.548427 7.38045 0.548427 7.61205 1.08513L9.0654 4.45305C9.16347 4.68031 9.37937 4.83453 9.62615 4.85359L13.3533 5.14159C13.9512 5.1878 14.1888 5.9385 13.7263 6.32036L10.9234 8.63455C10.7257 8.79778 10.6391 9.05992 10.7007 9.30879L11.5633 12.7944C11.7052 13.3676 11.0869 13.8286 10.578 13.529L7.33816 11.6217C7.12943 11.4988 6.87047 11.4988 6.66173 11.6217L3.42191 13.529C2.91304 13.8286 2.29469 13.3676 2.43655 12.7944L3.29918 9.30879C3.36077 9.05992 3.27419 8.79778 3.07648 8.63455L0.273557 6.32036C-0.188949 5.9385 0.0486545 5.1878 0.646646 5.14159L4.37375 4.85359C4.62052 4.83453 4.83642 4.68031 4.93449 4.45305L6.38784 1.08513Z" fill="#23262F"/>
</svg>
