<svg xmlns="http://www.w3.org/2000/svg" width="35" height="35" viewBox="0 0 35 35" fill="none">
  <path fill-rule="evenodd" clip-rule="evenodd" d="M17.5 18.9584C11.8621 18.9584 7.29167 23.5288 7.29167 29.1667V32.0834C7.29167 32.8888 6.63875 33.5417 5.83333 33.5417C5.02792 33.5417 4.375 32.8888 4.375 32.0834V29.1667C4.375 21.9179 10.2513 16.0417 17.5 16.0417C24.7487 16.0417 30.625 21.9179 30.625 29.1667V32.0834C30.625 32.8888 29.9721 33.5417 29.1667 33.5417C28.3613 33.5417 27.7083 32.8888 27.7083 32.0834V29.1667C27.7083 23.5288 23.1379 18.9584 17.5 18.9584Z" fill="#9F9F9F"/>
  <path fill-rule="evenodd" clip-rule="evenodd" d="M17.5 16.0416C20.7217 16.0416 23.3333 13.43 23.3333 10.2083C23.3333 6.98665 20.7217 4.37498 17.5 4.37498C14.2783 4.37498 11.6667 6.98665 11.6667 10.2083C11.6667 13.43 14.2783 16.0416 17.5 16.0416ZM17.5 18.9583C22.3325 18.9583 26.25 15.0408 26.25 10.2083C26.25 5.37582 22.3325 1.45831 17.5 1.45831C12.6675 1.45831 8.75 5.37582 8.75 10.2083C8.75 15.0408 12.6675 18.9583 17.5 18.9583Z" fill="#9F9F9F"/>
</svg>